<svg width="127" height="136" viewBox="0 0 127 136" fill="none" xmlns="http://www.w3.org/2000/svg">
<g id="Logo Lockup">
<g id="Group 24">
<path id="Path 1101" d="M78.966 68.374H47.288C46.874 68.375 46.474 68.2248 46.1628 67.9518C45.8517 67.6788 45.6508 67.3016 45.598 66.891L43.066 47.591H40.672C40.4487 47.591 40.2277 47.547 40.0214 47.4616C39.8152 47.3762 39.6278 47.251 39.4699 47.0931C39.312 46.9352 39.1868 46.7478 39.1014 46.5416C39.016 46.3353 38.972 46.1143 38.972 45.891V35.361C38.972 35.1378 39.016 34.9167 39.1014 34.7104C39.1868 34.5042 39.312 34.3168 39.4699 34.1589C39.6278 34.0011 39.8152 33.8758 40.0214 33.7904C40.2277 33.705 40.4487 33.661 40.672 33.661H85.582C85.8052 33.661 86.0263 33.705 86.2326 33.7904C86.4388 33.8758 86.6262 34.0011 86.7841 34.1589C86.9419 34.3168 87.0671 34.5042 87.1526 34.7104C87.238 34.9167 87.282 35.1378 87.282 35.361V45.884C87.282 46.3349 87.1029 46.7673 86.7841 47.0861C86.4653 47.4049 86.0329 47.584 85.582 47.584H83.189L80.657 66.884C80.6041 67.2946 80.4033 67.6718 80.0922 67.9448C79.781 68.2178 79.3809 68.368 78.967 68.367L78.966 68.374ZM48.783 64.966H77.472L80.004 45.666C80.0568 45.2556 80.2575 44.8786 80.5684 44.6056C80.8794 44.3325 81.2792 44.1823 81.693 44.183H83.878V37.065H42.378V44.179H44.563C44.9768 44.1783 45.3766 44.3285 45.6875 44.6016C45.9985 44.8746 46.1992 45.2516 46.252 45.662L48.783 64.966Z" fill="white"/>
<path id="Path 1102" d="M63.834 47.586H43.88C43.4281 47.586 42.9946 47.4065 42.6751 47.0869C42.3555 46.7673 42.176 46.3339 42.176 45.882C42.176 45.4301 42.3555 44.9966 42.6751 44.6771C42.9946 44.3575 43.4281 44.178 43.88 44.178H63.834C64.2859 44.178 64.7193 44.3575 65.0389 44.6771C65.3585 44.9966 65.538 45.4301 65.538 45.882C65.538 46.3339 65.3585 46.7673 65.0389 47.0869C64.7193 47.4065 64.2859 47.586 63.834 47.586Z" fill="white"/>
<path id="Path 1103" d="M63.127 25.055C62.9037 25.055 62.6827 25.011 62.4764 24.9256C62.2702 24.8402 62.0828 24.7149 61.9249 24.5571C61.767 24.3992 61.6418 24.2118 61.5564 24.0056C61.471 23.7993 61.427 23.5782 61.427 23.355V12.972C61.367 11.4815 61.6182 9.99489 62.1645 8.60684C62.7108 7.2188 63.5402 5.95977 64.6 4.90999C68.476 1.16999 74.529 1.15499 75.377 1.16199L82.741 0.729995C82.9725 0.716352 83.2044 0.750225 83.4223 0.829528C83.6402 0.908831 83.8396 1.03189 84.0083 1.19113C84.1769 1.35037 84.3111 1.54242 84.4027 1.75548C84.4943 1.96853 84.5414 2.19808 84.541 2.42999C84.541 7.74799 83.009 11.692 79.986 14.152C75.423 17.866 69.246 16.64 68.986 16.586C68.7668 16.541 68.5587 16.4532 68.3734 16.3277C68.1881 16.2022 68.0294 16.0414 67.9063 15.8546C67.7832 15.6678 67.698 15.4585 67.6558 15.2388C67.6135 15.0191 67.6149 14.7932 67.66 14.574C67.705 14.3548 67.7928 14.1467 67.9183 13.9614C68.0438 13.7762 68.2045 13.6174 68.3914 13.4943C68.5782 13.3712 68.7875 13.286 69.0072 13.2438C69.2269 13.2015 69.4528 13.203 69.672 13.248C69.73 13.26 74.565 14.187 77.852 11.495C79.705 9.977 80.781 7.542 81.06 4.24199L75.502 4.56599C75.4487 4.56874 75.3953 4.56874 75.342 4.56599C75.288 4.56599 69.982 4.43199 66.953 7.36599C66.2268 8.09883 65.6625 8.97594 65.2967 9.94057C64.9308 10.9052 64.7715 11.9359 64.829 12.966V23.35C64.829 23.8009 64.6499 24.2333 64.3311 24.5521C64.0123 24.8709 63.5799 25.05 63.129 25.05" fill="white"/>
<path id="Path 1104" d="M63.123 31.641C62.6721 31.641 62.2397 31.4619 61.9209 31.1431C61.6021 30.8243 61.423 30.3919 61.423 29.941V22.968C61.4804 21.9379 61.321 20.9073 60.9552 19.9426C60.5893 18.978 60.0251 18.1009 59.299 17.368C56.268 14.431 50.96 14.568 50.906 14.568C50.852 14.568 50.806 14.568 50.75 14.568L45.192 14.244C45.473 17.555 46.554 19.995 48.417 21.511C51.737 24.211 56.527 23.261 56.574 23.251C56.7932 23.2055 57.0192 23.2037 57.239 23.2456C57.4589 23.2875 57.6684 23.3723 57.8555 23.4952C58.0426 23.618 58.2037 23.7765 58.3295 23.9616C58.4554 24.1467 58.5436 24.3548 58.589 24.574C58.6344 24.7932 58.6363 25.0191 58.5944 25.239C58.5525 25.4589 58.4677 25.6684 58.3448 25.8555C58.222 26.0426 58.0635 26.2037 57.8784 26.3295C57.6933 26.4554 57.4852 26.5435 57.266 26.589C57.005 26.644 50.828 27.869 46.266 24.155C43.243 21.695 41.711 17.755 41.711 12.433C41.7106 12.2011 41.7577 11.9715 41.8493 11.7585C41.9409 11.5454 42.0751 11.3534 42.2437 11.1941C42.4123 11.0349 42.6118 10.9118 42.8297 10.8325C43.0476 10.7532 43.2795 10.7193 43.511 10.733L50.874 11.162C51.712 11.15 57.774 11.169 61.651 14.91C62.7115 15.9596 63.5417 17.2187 64.0887 18.6069C64.6357 19.9951 64.8875 21.4821 64.828 22.973V29.942C64.828 30.1652 64.784 30.3863 64.6986 30.5925C64.6132 30.7988 64.4879 30.9862 64.3301 31.1441C64.1722 31.3019 63.9848 31.4271 63.7786 31.5126C63.5723 31.598 63.3513 31.642 63.128 31.642" fill="white"/>
<path id="Path 1105" d="M0.0739976 84.715C0.0223486 84.5846 -0.00280756 84.4452 -2.36597e-06 84.305C0.0224399 84.1017 0.114265 83.9124 0.259998 83.769C0.359736 83.6639 0.481722 83.5824 0.617027 83.5304C0.752331 83.4785 0.897531 83.4575 1.042 83.469H4.3C4.69352 83.4706 5.07359 83.6125 5.372 83.869C5.69684 84.1329 5.93967 84.4839 6.072 84.881L10 96.667L13.633 84.879C13.7112 84.4711 13.9324 84.1045 14.2569 83.8452C14.5815 83.586 14.9879 83.4511 15.403 83.465H18.142C18.5573 83.4509 18.9639 83.5856 19.2887 83.8449C19.6134 84.1042 19.8348 84.4709 19.913 84.879L23.546 96.667L27.475 84.879C27.6073 84.4819 27.8502 84.1309 28.175 83.867C28.4735 83.6106 28.8535 83.4688 29.247 83.467H32.506C32.6481 83.4565 32.7908 83.4781 32.9235 83.53C33.0563 83.5819 33.1757 83.6629 33.273 83.767C33.4186 83.9105 33.5104 84.0998 33.533 84.303C33.5354 84.4419 33.5154 84.5804 33.474 84.713L26.836 103.289C26.7045 103.748 26.4204 104.149 26.0307 104.425C25.6409 104.701 25.1687 104.835 24.692 104.807H22.534C22.057 104.847 21.5812 104.716 21.1915 104.438C20.8018 104.16 20.5235 103.753 20.406 103.289L16.774 91.828L13.143 103.289C13.0228 103.752 12.7438 104.157 12.3548 104.435C11.9657 104.712 11.4915 104.844 11.015 104.807H8.841C8.36671 104.833 7.89774 104.697 7.51105 104.421C7.12437 104.145 6.84295 103.746 6.713 103.289L0.0739976 84.715Z" fill="white"/>
<path id="Path 1106" d="M35.371 102.933C33.889 101.179 33.0772 98.9563 33.0801 96.6601C33.0831 94.3638 33.9005 92.1431 35.387 90.393C37.1478 88.8462 39.4473 88.0558 41.787 88.193C44.1112 88.0529 46.3995 88.818 48.172 90.328C48.9661 91.1286 49.5812 92.0887 49.9764 93.1447C50.3717 94.2008 50.5383 95.3288 50.465 96.454V97.302C50.4693 97.4245 50.4484 97.5465 50.4035 97.6605C50.3586 97.7745 50.2906 97.8781 50.2039 97.9647C50.1173 98.0513 50.0136 98.1191 49.8996 98.1639C49.7855 98.2087 49.6635 98.2295 49.541 98.225H38.333C38.3359 99.2134 38.7108 100.164 39.383 100.889C40.2056 101.516 41.2326 101.814 42.263 101.723C42.7522 101.782 43.2484 101.732 43.7164 101.578C44.1844 101.424 44.6127 101.168 44.971 100.83C45.1818 100.551 45.4536 100.325 45.7656 100.167C46.0777 100.01 46.4216 99.9259 46.771 99.922H48.989C49.1114 99.9175 49.2333 99.9383 49.3473 99.9831C49.4613 100.028 49.5648 100.096 49.6513 100.182C49.7378 100.269 49.8056 100.373 49.8503 100.487C49.8949 100.601 49.9156 100.723 49.911 100.845C49.911 103.693 47.1973 105.112 41.77 105.101C39.4344 105.243 37.1363 104.463 35.37 102.928L35.371 102.933ZM38.303 95.084H45.224C45.1253 92.742 43.9767 91.571 41.778 91.571C39.5793 91.571 38.421 92.7427 38.303 95.086" fill="white"/>
<path id="Path 1107" d="M60.972 101.578L63.011 101.399H63.562C63.6836 101.395 63.8049 101.415 63.9186 101.459C64.0323 101.502 64.1361 101.568 64.224 101.652C64.3104 101.737 64.3781 101.839 64.4228 101.952C64.4676 102.065 64.4884 102.186 64.484 102.307V103.897C64.4829 104.008 64.4592 104.117 64.4145 104.218C64.3698 104.319 64.305 104.41 64.224 104.485C64.0446 104.662 63.8119 104.774 63.562 104.805C62.2542 105.028 60.9284 105.128 59.602 105.105C55.3353 105.105 53.202 102.872 53.202 98.405V84.387C53.1977 84.2647 53.2186 84.1429 53.2633 84.029C53.308 83.9152 53.3757 83.8117 53.462 83.725C53.5465 83.6396 53.6475 83.5723 53.759 83.5274C53.8704 83.4825 53.9899 83.461 54.11 83.464H57.443C57.5631 83.4608 57.6826 83.4824 57.7941 83.5273C57.9055 83.5722 58.0066 83.6395 58.091 83.725C58.177 83.8119 58.2445 83.9154 58.2892 84.0292C58.3339 84.143 58.3549 84.2648 58.351 84.387V89.359H62.504C62.6234 89.3557 62.7423 89.3764 62.8536 89.4199C62.9649 89.4633 63.0664 89.5287 63.152 89.612C63.2384 89.6972 63.3061 89.7994 63.3508 89.9122C63.3956 90.0249 63.4164 90.1458 63.412 90.267V92.038C63.4165 92.1592 63.3957 92.2801 63.3509 92.3929C63.3062 92.5056 63.2384 92.6078 63.152 92.693C63.0664 92.7763 62.9649 92.8417 62.8536 92.8851C62.7423 92.9286 62.6234 92.9493 62.504 92.946H58.357V98.409C58.303 99.251 58.5568 100.084 59.071 100.753C59.3064 101.025 59.5998 101.24 59.9295 101.383C60.2593 101.526 60.6169 101.593 60.976 101.579" fill="white"/>
<path id="Path 1108" d="M77.896 103.38V84.909C77.891 84.7198 77.9238 84.5315 77.9925 84.3552C78.0612 84.1788 78.1644 84.018 78.296 83.882C78.4214 83.7476 78.5736 83.6411 78.7427 83.5693C78.9119 83.4974 79.0943 83.4619 79.278 83.465H85.337C85.741 83.4717 86.13 83.6192 86.437 83.882C86.768 84.1351 87.0125 84.4844 87.137 84.882L91.528 97.593L95.919 84.882C96.0434 84.4844 96.288 84.135 96.619 83.882C96.926 83.6194 97.315 83.4719 97.719 83.465H103.777C103.959 83.4615 104.141 83.4969 104.308 83.5688C104.476 83.6407 104.627 83.7475 104.75 83.882C104.881 84.0185 104.984 84.1794 105.052 84.3556C105.121 84.5319 105.154 84.7199 105.15 84.909V103.381C105.155 103.57 105.121 103.758 105.051 103.933C104.98 104.108 104.874 104.267 104.74 104.4C104.612 104.532 104.458 104.637 104.288 104.708C104.118 104.778 103.935 104.813 103.751 104.81H101.072C100.888 104.813 100.705 104.778 100.535 104.708C100.364 104.637 100.21 104.532 100.082 104.4C99.9479 104.267 99.8425 104.108 99.7721 103.933C99.7018 103.758 99.668 103.57 99.673 103.381V88.837L94.418 103.469C94.2703 103.847 94.0173 104.175 93.689 104.414C93.3764 104.664 92.9893 104.803 92.589 104.808H90.461C90.0623 104.804 89.6767 104.665 89.367 104.414C89.0398 104.172 88.7847 103.845 88.629 103.469L83.39 88.837V103.38C83.3951 103.569 83.3614 103.757 83.291 103.932C83.2207 104.107 83.1152 104.266 82.981 104.399C82.8527 104.531 82.6987 104.636 82.5284 104.706C82.3582 104.777 82.1753 104.812 81.991 104.809H79.311C79.124 104.809 78.9388 104.772 78.7662 104.7C78.5936 104.629 78.437 104.523 78.3056 104.39C78.1741 104.257 78.0703 104.099 78.0004 103.926C77.9304 103.753 77.8956 103.567 77.898 103.38" fill="white"/>
<path id="Path 1109" d="M112.294 106.356L114.244 106.609C115.644 106.609 116.622 105.582 117.177 103.528C115.625 103.577 114.113 103.031 112.95 102.002C111.53 100.472 110.525 98.6043 110.033 96.576L107.816 89.387C107.784 89.2989 107.769 89.2057 107.77 89.112C107.788 88.968 107.854 88.8342 107.957 88.732C108.027 88.6544 108.114 88.593 108.21 88.5519C108.306 88.5108 108.41 88.4911 108.515 88.494H111.626C111.926 88.4978 112.216 88.5997 112.452 88.784C112.701 88.9583 112.883 89.2133 112.966 89.506L114.916 95.817C115.212 96.9692 115.713 98.0584 116.397 99.032C116.606 99.3067 116.875 99.5299 117.183 99.6847C117.491 99.8395 117.831 99.9217 118.176 99.925L121.139 89.506C121.215 89.2222 121.379 88.9696 121.607 88.784C121.824 88.5964 122.102 88.4934 122.389 88.494H125.529C125.633 88.4862 125.738 88.5038 125.834 88.5452C125.93 88.5867 126.014 88.6508 126.08 88.732C126.178 88.8425 126.24 88.9803 126.258 89.127C126.26 89.2146 126.25 89.3022 126.228 89.387L122.328 103.287C121.901 105.224 121.015 107.031 119.746 108.556C119.23 109.08 118.611 109.49 117.928 109.762C117.245 110.034 116.514 110.16 115.779 110.134C114.633 110.162 113.486 110.102 112.349 109.955C111.899 109.92 111.465 109.769 111.091 109.516C111.011 109.438 110.948 109.344 110.904 109.241C110.861 109.138 110.838 109.028 110.838 108.916V107.279C110.834 107.157 110.854 107.036 110.897 106.922C110.941 106.808 111.007 106.704 111.091 106.616C111.176 106.53 111.278 106.462 111.391 106.417C111.504 106.372 111.625 106.351 111.746 106.356H112.294Z" fill="white"/>
<path id="Path 1110" d="M13.06 134.085V115.554C13.0567 115.369 13.0904 115.185 13.1591 115.014C13.2278 114.842 13.3301 114.686 13.46 114.554C13.5855 114.42 13.7379 114.313 13.9072 114.241C14.0765 114.169 14.2591 114.134 14.443 114.137H25.802C31.8053 114.137 34.807 116.904 34.807 122.437C34.807 127.97 31.8053 130.737 25.802 130.737H18.672V134.085C18.672 134.456 18.5245 134.812 18.2619 135.075C17.9994 135.337 17.6433 135.485 17.272 135.485H14.472C14.2862 135.488 14.1018 135.453 13.9299 135.383C13.7581 135.312 13.6023 135.207 13.472 135.075C13.3378 134.948 13.2315 134.794 13.1597 134.624C13.0879 134.453 13.0523 134.27 13.055 134.085H13.06ZM18.666 126.524H24.102C25.4226 126.608 26.74 126.316 27.902 125.683C28.7687 125.122 29.202 124.04 29.202 122.438C29.202 120.836 28.7687 119.754 27.902 119.193C26.7399 118.56 25.4226 118.269 24.102 118.352H18.671L18.666 126.524Z" fill="white"/>
<path id="Path 1111" d="M37.246 134.573V115.063C37.242 114.941 37.2629 114.819 37.3076 114.705C37.3523 114.591 37.4198 114.487 37.506 114.4C37.5905 114.315 37.6916 114.248 37.8031 114.203C37.9145 114.158 38.034 114.137 38.154 114.14H41.488C41.6081 114.137 41.7275 114.158 41.839 114.203C41.9504 114.248 42.0515 114.315 42.136 114.4C42.2222 114.487 42.2897 114.591 42.3344 114.705C42.3791 114.819 42.4001 114.941 42.396 115.063V134.573C42.3985 134.693 42.3766 134.812 42.3319 134.923C42.2871 135.035 42.2203 135.136 42.1355 135.22C42.0507 135.305 41.9496 135.372 41.8384 135.417C41.7271 135.462 41.6079 135.483 41.488 135.481H38.154C38.0341 135.483 37.9149 135.462 37.8036 135.417C37.6924 135.372 37.5913 135.305 37.5065 135.22C37.4217 135.136 37.3549 135.035 37.3101 134.923C37.2654 134.812 37.2436 134.693 37.246 134.573Z" fill="white"/>
<path id="Path 1112" d="M47.107 134.411C46.4741 133.989 45.9603 133.412 45.6149 132.734C45.2696 132.056 45.1043 131.301 45.135 130.541C45.1024 129.785 45.2671 129.033 45.6128 128.36C45.9586 127.687 46.4735 127.115 47.107 126.701C48.627 125.751 50.3992 125.284 52.19 125.361H57.117C57.164 124.928 57.1236 124.491 56.9984 124.074C56.8732 123.657 56.6656 123.27 56.388 122.935C55.6496 122.402 54.7412 122.158 53.835 122.25C53.3682 122.199 52.8959 122.254 52.4529 122.41C52.0099 122.565 51.6075 122.818 51.275 123.15C51.0641 123.43 50.7908 123.658 50.4768 123.814C50.1628 123.97 49.8167 124.051 49.466 124.05H47.249C47.1265 124.054 47.0046 124.033 46.8906 123.988C46.7766 123.943 46.6729 123.875 46.586 123.789C46.5007 123.705 46.4337 123.604 46.3889 123.492C46.3442 123.381 46.3228 123.262 46.326 123.142C46.326 120.294 49.03 118.87 54.438 118.87C56.4545 118.77 58.449 119.326 60.123 120.455C60.8539 121.034 61.4316 121.784 61.8054 122.638C62.1792 123.492 62.3377 124.425 62.267 125.355V134.568C62.2729 134.689 62.2534 134.809 62.2098 134.922C62.1663 135.035 62.0996 135.138 62.0141 135.223C61.9286 135.309 61.8261 135.375 61.7133 135.419C61.6005 135.462 61.4798 135.482 61.359 135.476H58.486C58.3647 135.481 58.2439 135.46 58.1311 135.415C58.0183 135.37 57.9161 135.302 57.831 135.216C57.7476 135.13 57.6823 135.029 57.6388 134.918C57.5953 134.806 57.5747 134.687 57.578 134.568V134.107C55.9959 135.233 54.0935 135.82 52.152 135.781C50.3685 135.851 48.6065 135.371 47.106 134.404L47.107 134.411ZM50.906 129.24C50.7124 129.398 50.5576 129.598 50.4536 129.825C50.3496 130.052 50.2991 130.299 50.306 130.549C50.2992 130.804 50.3514 131.056 50.4587 131.288C50.5659 131.519 50.7252 131.722 50.924 131.881C51.4348 132.258 52.0624 132.443 52.696 132.402C54.2678 132.389 55.8026 131.924 57.117 131.062V128.741H52.547C51.9562 128.708 51.373 128.888 50.903 129.247" fill="white"/>
<path id="Path 1113" d="M65.471 134.576V120.093C65.467 119.971 65.4879 119.849 65.5326 119.735C65.5773 119.621 65.6449 119.517 65.731 119.43C65.8156 119.345 65.9167 119.278 66.0282 119.233C66.1396 119.188 66.259 119.167 66.379 119.17H69.713C69.833 119.167 69.9524 119.188 70.0639 119.233C70.1753 119.278 70.2764 119.345 70.361 119.43C70.4472 119.517 70.5147 119.621 70.5594 119.735C70.6041 119.849 70.6251 119.971 70.621 120.093V121.031C72.118 119.674 74.0569 118.907 76.077 118.873C76.9401 118.838 77.8013 118.976 78.6102 119.279C79.4191 119.582 80.1592 120.044 80.787 120.637C81.9977 121.813 82.603 123.613 82.603 126.037V134.581C82.6061 134.701 82.5847 134.82 82.5399 134.932C82.4952 135.043 82.4282 135.144 82.343 135.229C82.256 135.315 82.1523 135.383 82.0383 135.427C81.9243 135.472 81.8024 135.493 81.68 135.489H78.361C78.2411 135.491 78.1219 135.47 78.0107 135.425C77.8994 135.38 77.7983 135.313 77.7135 135.229C77.6287 135.144 77.5619 135.043 77.5171 134.931C77.4724 134.82 77.4506 134.701 77.453 134.581V126.032C77.453 123.661 76.5053 122.475 74.61 122.475C73.37 122.475 72.0403 123.184 70.621 124.603V134.575C70.6235 134.695 70.6017 134.814 70.5569 134.925C70.5121 135.037 70.4453 135.138 70.3605 135.223C70.2757 135.307 70.1746 135.374 70.0634 135.419C69.9521 135.464 69.8329 135.485 69.713 135.483H66.379C66.2591 135.485 66.1399 135.464 66.0287 135.419C65.9174 135.374 65.8163 135.307 65.7315 135.223C65.6467 135.138 65.5799 135.037 65.5351 134.925C65.4904 134.814 65.4686 134.695 65.471 134.575" fill="white"/>
<path id="Path 1114" d="M92.966 132.254L95.005 132.075H95.556C95.6777 132.071 95.7989 132.091 95.9126 132.135C96.0263 132.178 96.1301 132.244 96.218 132.328C96.3044 132.413 96.3721 132.515 96.4169 132.628C96.4616 132.741 96.4824 132.862 96.478 132.983V134.573C96.4769 134.684 96.4533 134.793 96.4086 134.894C96.3639 134.995 96.299 135.086 96.218 135.161C96.0386 135.338 95.8059 135.45 95.556 135.481C94.2482 135.704 92.9225 135.804 91.596 135.781C87.3294 135.781 85.196 133.548 85.196 129.081V115.062C85.1921 114.94 85.2131 114.818 85.2578 114.704C85.3025 114.59 85.37 114.487 85.456 114.4C85.5406 114.315 85.6417 114.248 85.7531 114.203C85.8646 114.158 85.984 114.137 86.104 114.14H89.437C89.5571 114.137 89.6765 114.158 89.788 114.203C89.8995 114.247 90.0006 114.315 90.085 114.4C90.1711 114.487 90.2385 114.59 90.2832 114.704C90.3279 114.818 90.3489 114.94 90.345 115.062V120.033H94.498C94.6174 120.03 94.7363 120.05 94.8476 120.094C94.9589 120.137 95.0604 120.203 95.146 120.286C95.2324 120.371 95.3002 120.473 95.3449 120.586C95.3897 120.699 95.4105 120.82 95.406 120.941V122.712C95.4105 122.833 95.3896 122.954 95.3449 123.067C95.3001 123.18 95.2324 123.282 95.146 123.367C95.0605 123.45 94.9591 123.516 94.8477 123.559C94.7364 123.603 94.6175 123.623 94.498 123.62H90.346V129.083C90.2918 129.925 90.5455 130.758 91.06 131.427C91.2951 131.699 91.5884 131.914 91.9182 132.057C92.248 132.2 92.6058 132.267 92.965 132.253" fill="white"/>
<path id="Path 1115" d="M97.998 123.68C97.998 120.475 100.583 118.872 105.753 118.872C111.191 118.872 113.91 120.296 113.909 123.144C113.912 123.263 113.892 123.382 113.848 123.493C113.805 123.604 113.739 123.706 113.656 123.791C113.571 123.878 113.469 123.946 113.356 123.991C113.243 124.036 113.122 124.056 113.001 124.052H110.783C110.434 124.053 110.089 123.972 109.776 123.816C109.463 123.66 109.192 123.432 108.983 123.152C108.598 122.803 108.141 122.542 107.645 122.386C107.149 122.231 106.625 122.185 106.11 122.252C104.146 122.252 103.164 122.729 103.163 123.682C103.163 124.128 103.548 124.5 104.317 124.799C105.231 125.137 106.172 125.399 107.13 125.58C108.248 125.806 109.354 126.092 110.442 126.436C111.497 126.756 112.459 127.325 113.247 128.096C113.627 128.471 113.926 128.92 114.125 129.415C114.323 129.91 114.417 130.442 114.401 130.975C114.401 134.18 111.672 135.783 106.215 135.783C100.758 135.783 98.029 134.364 98.029 131.527C98.0245 131.405 98.0453 131.283 98.09 131.169C98.1348 131.055 98.2025 130.951 98.289 130.864C98.3755 130.778 98.4789 130.71 98.5928 130.665C98.7067 130.62 98.8286 130.599 98.951 130.603H101.169C101.518 130.602 101.863 130.683 102.176 130.839C102.489 130.995 102.76 131.223 102.969 131.503C103.354 131.852 103.811 132.113 104.307 132.269C104.803 132.424 105.327 132.47 105.842 132.403C108.114 132.403 109.25 131.927 109.25 130.974C109.25 130.528 108.865 130.156 108.096 129.858C107.179 129.516 106.236 129.249 105.276 129.058C104.165 128.825 103.061 128.537 101.964 128.194C100.908 127.876 99.9459 127.306 99.159 126.534C98.7789 126.164 98.4796 125.719 98.2798 125.227C98.08 124.735 97.984 124.208 97.998 123.677" fill="white"/>
</g>
</g>
</svg>
