<svg width="51" height="71" viewBox="0 0 51 71" fill="none" xmlns="http://www.w3.org/2000/svg">
<g id="Logo">
<g id="Group 17">
<path id="Path 1093" d="M41.637 70.85H8.661C8.23031 70.8506 7.81412 70.6944 7.4901 70.4107C7.16607 70.1269 6.95633 69.735 6.9 69.308L4.265 49.208H1.774C1.30403 49.208 0.853257 49.0215 0.520653 48.6895C0.18805 48.3575 0.000795899 47.907 1.1275e-06 47.437V36.484C-0.000261706 36.2509 0.0454302 36.02 0.134464 35.8045C0.223499 35.5891 0.354129 35.3933 0.518886 35.2283C0.683643 35.0634 0.879296 34.9325 1.09466 34.8433C1.31002 34.754 1.54087 34.708 1.774 34.708H48.524C48.7573 34.7078 48.9884 34.7535 49.204 34.8427C49.4195 34.9318 49.6154 35.0626 49.7804 35.2276C49.9454 35.3926 50.0762 35.5885 50.1653 35.8041C50.2545 36.0197 50.3003 36.2507 50.3 36.484V47.437C50.2992 47.9073 50.1117 48.3581 49.7786 48.6902C49.4456 49.0223 48.9943 49.2086 48.524 49.208H46.033L43.4 69.308C43.3439 69.7349 43.1346 70.1268 42.811 70.4106C42.4873 70.6945 42.0715 70.8511 41.641 70.851L41.637 70.85ZM10.221 67.303H40.081L42.717 47.203C42.773 46.7764 42.9823 46.3846 43.3057 46.1007C43.6291 45.8169 44.0447 45.6602 44.475 45.66H46.75V38.26H3.548V45.66H5.822C6.25326 45.6602 6.6697 45.8174 6.99344 46.1023C7.31719 46.3872 7.52606 46.7803 7.581 47.208L10.221 67.303Z" fill="white"/>
<path id="Path 1094" d="M25.884 49.21H5.113C4.64251 49.21 4.19128 49.0231 3.85859 48.6904C3.5259 48.3577 3.339 47.9065 3.339 47.436C3.339 46.9655 3.5259 46.5143 3.85859 46.1816C4.19128 45.8489 4.64251 45.662 5.113 45.662H25.884C26.3545 45.662 26.8057 45.8489 27.1384 46.1816C27.4711 46.5143 27.658 46.9655 27.658 47.436C27.658 47.9065 27.4711 48.3577 27.1384 48.6904C26.8057 49.0231 26.3545 49.21 25.884 49.21Z" fill="white"/>
<path id="Path 1095" d="M25.149 25.755C24.6785 25.755 24.2273 25.5681 23.8946 25.2354C23.5619 24.9027 23.375 24.4515 23.375 23.981V13.181C23.313 11.6291 23.575 10.0812 24.1444 8.63617C24.7138 7.19111 25.578 5.88054 26.682 4.78802C30.717 0.89202 37.018 0.87702 37.901 0.88402L45.566 0.43402C45.8073 0.419707 46.0489 0.454871 46.2761 0.537353C46.5033 0.619834 46.7112 0.747891 46.8871 0.913657C47.0629 1.07942 47.2031 1.2794 47.2988 1.5013C47.3946 1.7232 47.444 1.96233 47.444 2.20402C47.444 7.74002 45.844 11.846 42.702 14.404C37.952 18.27 31.522 16.994 31.251 16.937C30.7944 16.838 30.3954 16.5628 30.1405 16.1713C29.8856 15.7797 29.7954 15.3034 29.8896 14.8458C29.9837 14.3882 30.2546 13.9862 30.6434 13.7272C31.0321 13.4681 31.5074 13.3728 31.966 13.462C32.026 13.475 37.06 14.439 40.481 11.637C42.41 10.057 43.53 7.52202 43.82 4.08702L38.035 4.43402C37.9797 4.43686 37.9243 4.43686 37.869 4.43402C37.813 4.43402 32.289 4.29502 29.136 7.35102C28.3803 8.11372 27.793 9.02652 27.4121 10.0304C27.0313 11.0343 26.8653 12.107 26.925 13.179V23.979C26.925 24.4495 26.7381 24.9007 26.4054 25.2334C26.0727 25.5661 25.6215 25.753 25.151 25.753" fill="white"/>
<path id="Path 1096" d="M25.149 32.612C24.6785 32.612 24.2273 32.4251 23.8946 32.0924C23.5619 31.7597 23.375 31.3085 23.375 30.838V23.583C23.4347 22.511 23.2687 21.4383 22.8879 20.4344C22.507 19.4305 21.9197 18.5177 21.164 17.755C18.009 14.697 12.483 14.836 12.427 14.838C12.371 14.84 12.318 14.838 12.264 14.838L6.479 14.501C6.771 17.947 7.897 20.487 9.836 22.065C13.293 24.876 18.278 23.885 18.332 23.876C18.5611 23.8262 18.7978 23.8222 19.0284 23.8644C19.259 23.9066 19.479 23.9941 19.6756 24.1218C19.8722 24.2495 20.0415 24.4149 20.1738 24.6085C20.3061 24.802 20.3987 25.0199 20.4462 25.2494C20.4938 25.479 20.4954 25.7157 20.451 25.9459C20.4065 26.1761 20.3169 26.3952 20.1872 26.5905C20.0576 26.7858 19.8905 26.9535 19.6956 27.0839C19.5008 27.2143 19.282 27.3047 19.052 27.35C18.78 27.406 12.352 28.682 7.601 24.816C4.455 22.256 2.859 18.151 2.859 12.616C2.85876 12.3746 2.90781 12.1356 3.00315 11.9138C3.09849 11.6919 3.23811 11.4919 3.41346 11.3259C3.58881 11.1599 3.79619 11.0315 4.02292 10.9485C4.24964 10.8654 4.49093 10.8295 4.732 10.843L12.397 11.289C13.269 11.276 19.58 11.297 23.616 15.189C24.72 16.2815 25.5842 17.5921 26.1536 19.0372C26.723 20.4822 26.985 22.0301 26.923 23.582V30.837C26.923 31.3075 26.7361 31.7587 26.4034 32.0914C26.0707 32.4241 25.6195 32.611 25.149 32.611" fill="white"/>
</g>
</g>
</svg>
