<svg width="64" height="38" viewBox="0 0 64 38" fill="none" xmlns="http://www.w3.org/2000/svg" opacity="0.1">
<g id="Group 26">
<g id="Vector">
<path d="M31.92 21.32C31.92 21.32 3 25.42 3 3L13.91 3.63998C13.91 3.63998 31.91 2.98999 31.91 18.46V37.68" fill="#205D46" fill-opacity="0.02"/>
<path d="M31.92 21.32C31.92 21.32 3 25.42 3 3L13.91 3.63998C13.91 3.63998 31.91 2.98999 31.91 18.46V37.68" stroke="#205D46" stroke-width="5" stroke-linejoin="round"/>
</g>
<g id="Vector_2">
<path d="M31.92 21.32C31.92 21.32 60.84 25.42 60.84 3L49.93 3.63998C49.93 3.63998 31.93 2.98999 31.93 18.46V37.68" fill="#205D46" fill-opacity="0.02"/>
<path d="M31.92 21.32C31.92 21.32 60.84 25.42 60.84 3L49.93 3.63998C49.93 3.63998 31.93 2.98999 31.93 18.46V37.68" stroke="#205D46" stroke-width="5" stroke-linejoin="round"/>
</g>
</g>
</svg>
