<svg width="375" height="803" viewBox="0 0 375 803" fill="none" xmlns="http://www.w3.org/2000/svg">
<mask id="mask0_12_965" style="mask-type:alpha" maskUnits="userSpaceOnUse" x="-33" y="0" width="500" height="822">
<path d="M37.92 21.32C37.92 21.32 9 25.42 9 3L19.91 3.63998C19.91 3.63998 37.91 2.98999 37.91 18.46V37.68" fill="#205D46" fill-opacity="0.02"/>
<path d="M37.92 21.32C37.92 21.32 9 25.42 9 3L19.91 3.63998C19.91 3.63998 37.91 2.98999 37.91 18.46V37.68" stroke="#205D46" stroke-width="5" stroke-linejoin="round"/>
<path d="M37.92 21.32C37.92 21.32 66.84 25.42 66.84 3L55.93 3.63998C55.93 3.63998 37.93 2.98999 37.93 18.46V37.68" fill="#205D46" fill-opacity="0.02"/>
<path d="M37.92 21.32C37.92 21.32 66.84 25.42 66.84 3L55.93 3.63998C55.93 3.63998 37.93 2.98999 37.93 18.46V37.68" stroke="#205D46" stroke-width="5" stroke-linejoin="round"/>
<path d="M115.92 21.32C115.92 21.32 87 25.42 87 3L97.91 3.63998C97.91 3.63998 115.91 2.98999 115.91 18.46V37.68" fill="#205D46" fill-opacity="0.02"/>
<path d="M115.92 21.32C115.92 21.32 87 25.42 87 3L97.91 3.63998C97.91 3.63998 115.91 2.98999 115.91 18.46V37.68" stroke="#205D46" stroke-width="5" stroke-linejoin="round"/>
<path d="M115.92 21.32C115.92 21.32 144.84 25.42 144.84 3L133.93 3.63998C133.93 3.63998 115.93 2.98999 115.93 18.46V37.68" fill="#205D46" fill-opacity="0.02"/>
<path d="M115.92 21.32C115.92 21.32 144.84 25.42 144.84 3L133.93 3.63998C133.93 3.63998 115.93 2.98999 115.93 18.46V37.68" stroke="#205D46" stroke-width="5" stroke-linejoin="round"/>
<path d="M193.92 21.32C193.92 21.32 165 25.42 165 3L175.91 3.63998C175.91 3.63998 193.91 2.98999 193.91 18.46V37.68" fill="#205D46" fill-opacity="0.02"/>
<path d="M193.92 21.32C193.92 21.32 165 25.42 165 3L175.91 3.63998C175.91 3.63998 193.91 2.98999 193.91 18.46V37.68" stroke="#205D46" stroke-width="5" stroke-linejoin="round"/>
<path d="M193.92 21.32C193.92 21.32 222.84 25.42 222.84 3L211.93 3.63998C211.93 3.63998 193.93 2.98999 193.93 18.46V37.68" fill="#205D46" fill-opacity="0.02"/>
<path d="M193.92 21.32C193.92 21.32 222.84 25.42 222.84 3L211.93 3.63998C211.93 3.63998 193.93 2.98999 193.93 18.46V37.68" stroke="#205D46" stroke-width="5" stroke-linejoin="round"/>
<path d="M271.92 21.32C271.92 21.32 243 25.42 243 3L253.91 3.63998C253.91 3.63998 271.91 2.98999 271.91 18.46V37.68" fill="#205D46" fill-opacity="0.02"/>
<path d="M271.92 21.32C271.92 21.32 243 25.42 243 3L253.91 3.63998C253.91 3.63998 271.91 2.98999 271.91 18.46V37.68" stroke="#205D46" stroke-width="5" stroke-linejoin="round"/>
<path d="M271.92 21.32C271.92 21.32 300.84 25.42 300.84 3L289.93 3.63998C289.93 3.63998 271.93 2.98999 271.93 18.46V37.68" fill="#205D46" fill-opacity="0.02"/>
<path d="M271.92 21.32C271.92 21.32 300.84 25.42 300.84 3L289.93 3.63998C289.93 3.63998 271.93 2.98999 271.93 18.46V37.68" stroke="#205D46" stroke-width="5" stroke-linejoin="round"/>
<path d="M349.92 21.32C349.92 21.32 321 25.42 321 3L331.91 3.63998C331.91 3.63998 349.91 2.98999 349.91 18.46V37.68" fill="#205D46" fill-opacity="0.02"/>
<path d="M349.92 21.32C349.92 21.32 321 25.42 321 3L331.91 3.63998C331.91 3.63998 349.91 2.98999 349.91 18.46V37.68" stroke="#205D46" stroke-width="5" stroke-linejoin="round"/>
<path d="M349.92 21.32C349.92 21.32 378.84 25.42 378.84 3L367.93 3.63998C367.93 3.63998 349.93 2.98999 349.93 18.46V37.68" fill="#205D46" fill-opacity="0.02"/>
<path d="M349.92 21.32C349.92 21.32 378.84 25.42 378.84 3L367.93 3.63998C367.93 3.63998 349.93 2.98999 349.93 18.46V37.68" stroke="#205D46" stroke-width="5" stroke-linejoin="round"/>
<path d="M37.92 217.32C37.92 217.32 9 221.42 9 199L19.91 199.64C19.91 199.64 37.91 198.99 37.91 214.46V233.68" fill="#205D46" fill-opacity="0.02"/>
<path d="M37.92 217.32C37.92 217.32 9 221.42 9 199L19.91 199.64C19.91 199.64 37.91 198.99 37.91 214.46V233.68" stroke="#205D46" stroke-width="5" stroke-linejoin="round"/>
<path d="M37.92 217.32C37.92 217.32 66.84 221.42 66.84 199L55.93 199.64C55.93 199.64 37.93 198.99 37.93 214.46V233.68" fill="#205D46" fill-opacity="0.02"/>
<path d="M37.92 217.32C37.92 217.32 66.84 221.42 66.84 199L55.93 199.64C55.93 199.64 37.93 198.99 37.93 214.46V233.68" stroke="#205D46" stroke-width="5" stroke-linejoin="round"/>
<path d="M115.92 217.32C115.92 217.32 87 221.42 87 199L97.91 199.64C97.91 199.64 115.91 198.99 115.91 214.46V233.68" fill="#205D46" fill-opacity="0.02"/>
<path d="M115.92 217.32C115.92 217.32 87 221.42 87 199L97.91 199.64C97.91 199.64 115.91 198.99 115.91 214.46V233.68" stroke="#205D46" stroke-width="5" stroke-linejoin="round"/>
<path d="M115.92 217.32C115.92 217.32 144.84 221.42 144.84 199L133.93 199.64C133.93 199.64 115.93 198.99 115.93 214.46V233.68" fill="#205D46" fill-opacity="0.02"/>
<path d="M115.92 217.32C115.92 217.32 144.84 221.42 144.84 199L133.93 199.64C133.93 199.64 115.93 198.99 115.93 214.46V233.68" stroke="#205D46" stroke-width="5" stroke-linejoin="round"/>
<path d="M193.92 217.32C193.92 217.32 165 221.42 165 199L175.91 199.64C175.91 199.64 193.91 198.99 193.91 214.46V233.68" fill="#205D46" fill-opacity="0.02"/>
<path d="M193.92 217.32C193.92 217.32 165 221.42 165 199L175.91 199.64C175.91 199.64 193.91 198.99 193.91 214.46V233.68" stroke="#205D46" stroke-width="5" stroke-linejoin="round"/>
<path d="M193.92 217.32C193.92 217.32 222.84 221.42 222.84 199L211.93 199.64C211.93 199.64 193.93 198.99 193.93 214.46V233.68" fill="#205D46" fill-opacity="0.02"/>
<path d="M193.92 217.32C193.92 217.32 222.84 221.42 222.84 199L211.93 199.64C211.93 199.64 193.93 198.99 193.93 214.46V233.68" stroke="#205D46" stroke-width="5" stroke-linejoin="round"/>
<path d="M271.92 217.32C271.92 217.32 243 221.42 243 199L253.91 199.64C253.91 199.64 271.91 198.99 271.91 214.46V233.68" fill="#205D46" fill-opacity="0.02"/>
<path d="M271.92 217.32C271.92 217.32 243 221.42 243 199L253.91 199.64C253.91 199.64 271.91 198.99 271.91 214.46V233.68" stroke="#205D46" stroke-width="5" stroke-linejoin="round"/>
<path d="M271.92 217.32C271.92 217.32 300.84 221.42 300.84 199L289.93 199.64C289.93 199.64 271.93 198.99 271.93 214.46V233.68" fill="#205D46" fill-opacity="0.02"/>
<path d="M271.92 217.32C271.92 217.32 300.84 221.42 300.84 199L289.93 199.64C289.93 199.64 271.93 198.99 271.93 214.46V233.68" stroke="#205D46" stroke-width="5" stroke-linejoin="round"/>
<path d="M349.92 217.32C349.92 217.32 321 221.42 321 199L331.91 199.64C331.91 199.64 349.91 198.99 349.91 214.46V233.68" fill="#205D46" fill-opacity="0.02"/>
<path d="M349.92 217.32C349.92 217.32 321 221.42 321 199L331.91 199.64C331.91 199.64 349.91 198.99 349.91 214.46V233.68" stroke="#205D46" stroke-width="5" stroke-linejoin="round"/>
<path d="M349.92 217.32C349.92 217.32 378.84 221.42 378.84 199L367.93 199.64C367.93 199.64 349.93 198.99 349.93 214.46V233.68" fill="#205D46" fill-opacity="0.02"/>
<path d="M349.92 217.32C349.92 217.32 378.84 221.42 378.84 199L367.93 199.64C367.93 199.64 349.93 198.99 349.93 214.46V233.68" stroke="#205D46" stroke-width="5" stroke-linejoin="round"/>
<path d="M37.92 413.32C37.92 413.32 9 417.42 9 395L19.91 395.64C19.91 395.64 37.91 394.99 37.91 410.46V429.68" fill="#205D46" fill-opacity="0.02"/>
<path d="M37.92 413.32C37.92 413.32 9 417.42 9 395L19.91 395.64C19.91 395.64 37.91 394.99 37.91 410.46V429.68" stroke="#205D46" stroke-width="5" stroke-linejoin="round"/>
<path d="M37.92 413.32C37.92 413.32 66.84 417.42 66.84 395L55.93 395.64C55.93 395.64 37.93 394.99 37.93 410.46V429.68" fill="#205D46" fill-opacity="0.02"/>
<path d="M37.92 413.32C37.92 413.32 66.84 417.42 66.84 395L55.93 395.64C55.93 395.64 37.93 394.99 37.93 410.46V429.68" stroke="#205D46" stroke-width="5" stroke-linejoin="round"/>
<path d="M115.92 413.32C115.92 413.32 87 417.42 87 395L97.91 395.64C97.91 395.64 115.91 394.99 115.91 410.46V429.68" fill="#205D46" fill-opacity="0.02"/>
<path d="M115.92 413.32C115.92 413.32 87 417.42 87 395L97.91 395.64C97.91 395.64 115.91 394.99 115.91 410.46V429.68" stroke="#205D46" stroke-width="5" stroke-linejoin="round"/>
<path d="M115.92 413.32C115.92 413.32 144.84 417.42 144.84 395L133.93 395.64C133.93 395.64 115.93 394.99 115.93 410.46V429.68" fill="#205D46" fill-opacity="0.02"/>
<path d="M115.92 413.32C115.92 413.32 144.84 417.42 144.84 395L133.93 395.64C133.93 395.64 115.93 394.99 115.93 410.46V429.68" stroke="#205D46" stroke-width="5" stroke-linejoin="round"/>
<path d="M193.92 413.32C193.92 413.32 165 417.42 165 395L175.91 395.64C175.91 395.64 193.91 394.99 193.91 410.46V429.68" fill="#205D46" fill-opacity="0.02"/>
<path d="M193.92 413.32C193.92 413.32 165 417.42 165 395L175.91 395.64C175.91 395.64 193.91 394.99 193.91 410.46V429.68" stroke="#205D46" stroke-width="5" stroke-linejoin="round"/>
<path d="M193.92 413.32C193.92 413.32 222.84 417.42 222.84 395L211.93 395.64C211.93 395.64 193.93 394.99 193.93 410.46V429.68" fill="#205D46" fill-opacity="0.02"/>
<path d="M193.92 413.32C193.92 413.32 222.84 417.42 222.84 395L211.93 395.64C211.93 395.64 193.93 394.99 193.93 410.46V429.68" stroke="#205D46" stroke-width="5" stroke-linejoin="round"/>
<path d="M271.92 413.32C271.92 413.32 243 417.42 243 395L253.91 395.64C253.91 395.64 271.91 394.99 271.91 410.46V429.68" fill="#205D46" fill-opacity="0.02"/>
<path d="M271.92 413.32C271.92 413.32 243 417.42 243 395L253.91 395.64C253.91 395.64 271.91 394.99 271.91 410.46V429.68" stroke="#205D46" stroke-width="5" stroke-linejoin="round"/>
<path d="M271.92 413.32C271.92 413.32 300.84 417.42 300.84 395L289.93 395.64C289.93 395.64 271.93 394.99 271.93 410.46V429.68" fill="#205D46" fill-opacity="0.02"/>
<path d="M271.92 413.32C271.92 413.32 300.84 417.42 300.84 395L289.93 395.64C289.93 395.64 271.93 394.99 271.93 410.46V429.68" stroke="#205D46" stroke-width="5" stroke-linejoin="round"/>
<path d="M349.92 413.32C349.92 413.32 321 417.42 321 395L331.91 395.64C331.91 395.64 349.91 394.99 349.91 410.46V429.68" fill="#205D46" fill-opacity="0.02"/>
<path d="M349.92 413.32C349.92 413.32 321 417.42 321 395L331.91 395.64C331.91 395.64 349.91 394.99 349.91 410.46V429.68" stroke="#205D46" stroke-width="5" stroke-linejoin="round"/>
<path d="M349.92 413.32C349.92 413.32 378.84 417.42 378.84 395L367.93 395.64C367.93 395.64 349.93 394.99 349.93 410.46V429.68" fill="#205D46" fill-opacity="0.02"/>
<path d="M349.92 413.32C349.92 413.32 378.84 417.42 378.84 395L367.93 395.64C367.93 395.64 349.93 394.99 349.93 410.46V429.68" stroke="#205D46" stroke-width="5" stroke-linejoin="round"/>
<path d="M37.92 609.32C37.92 609.32 9 613.42 9 591L19.91 591.64C19.91 591.64 37.91 590.99 37.91 606.46V625.68" fill="#205D46" fill-opacity="0.02"/>
<path d="M37.92 609.32C37.92 609.32 9 613.42 9 591L19.91 591.64C19.91 591.64 37.91 590.99 37.91 606.46V625.68" stroke="#205D46" stroke-width="5" stroke-linejoin="round"/>
<path d="M37.92 609.32C37.92 609.32 66.84 613.42 66.84 591L55.93 591.64C55.93 591.64 37.93 590.99 37.93 606.46V625.68" fill="#205D46" fill-opacity="0.02"/>
<path d="M37.92 609.32C37.92 609.32 66.84 613.42 66.84 591L55.93 591.64C55.93 591.64 37.93 590.99 37.93 606.46V625.68" stroke="#205D46" stroke-width="5" stroke-linejoin="round"/>
<path d="M115.92 609.32C115.92 609.32 87 613.42 87 591L97.91 591.64C97.91 591.64 115.91 590.99 115.91 606.46V625.68" fill="#205D46" fill-opacity="0.02"/>
<path d="M115.92 609.32C115.92 609.32 87 613.42 87 591L97.91 591.64C97.91 591.64 115.91 590.99 115.91 606.46V625.68" stroke="#205D46" stroke-width="5" stroke-linejoin="round"/>
<path d="M115.92 609.32C115.92 609.32 144.84 613.42 144.84 591L133.93 591.64C133.93 591.64 115.93 590.99 115.93 606.46V625.68" fill="#205D46" fill-opacity="0.02"/>
<path d="M115.92 609.32C115.92 609.32 144.84 613.42 144.84 591L133.93 591.64C133.93 591.64 115.93 590.99 115.93 606.46V625.68" stroke="#205D46" stroke-width="5" stroke-linejoin="round"/>
<path d="M193.92 609.32C193.92 609.32 165 613.42 165 591L175.91 591.64C175.91 591.64 193.91 590.99 193.91 606.46V625.68" fill="#205D46" fill-opacity="0.02"/>
<path d="M193.92 609.32C193.92 609.32 165 613.42 165 591L175.91 591.64C175.91 591.64 193.91 590.99 193.91 606.46V625.68" stroke="#205D46" stroke-width="5" stroke-linejoin="round"/>
<path d="M193.92 609.32C193.92 609.32 222.84 613.42 222.84 591L211.93 591.64C211.93 591.64 193.93 590.99 193.93 606.46V625.68" fill="#205D46" fill-opacity="0.02"/>
<path d="M193.92 609.32C193.92 609.32 222.84 613.42 222.84 591L211.93 591.64C211.93 591.64 193.93 590.99 193.93 606.46V625.68" stroke="#205D46" stroke-width="5" stroke-linejoin="round"/>
<path d="M271.92 609.32C271.92 609.32 243 613.42 243 591L253.91 591.64C253.91 591.64 271.91 590.99 271.91 606.46V625.68" fill="#205D46" fill-opacity="0.02"/>
<path d="M271.92 609.32C271.92 609.32 243 613.42 243 591L253.91 591.64C253.91 591.64 271.91 590.99 271.91 606.46V625.68" stroke="#205D46" stroke-width="5" stroke-linejoin="round"/>
<path d="M271.92 609.32C271.92 609.32 300.84 613.42 300.84 591L289.93 591.64C289.93 591.64 271.93 590.99 271.93 606.46V625.68" fill="#205D46" fill-opacity="0.02"/>
<path d="M271.92 609.32C271.92 609.32 300.84 613.42 300.84 591L289.93 591.64C289.93 591.64 271.93 590.99 271.93 606.46V625.68" stroke="#205D46" stroke-width="5" stroke-linejoin="round"/>
<path d="M349.92 609.32C349.92 609.32 321 613.42 321 591L331.91 591.64C331.91 591.64 349.91 590.99 349.91 606.46V625.68" fill="#205D46" fill-opacity="0.02"/>
<path d="M349.92 609.32C349.92 609.32 321 613.42 321 591L331.91 591.64C331.91 591.64 349.91 590.99 349.91 606.46V625.68" stroke="#205D46" stroke-width="5" stroke-linejoin="round"/>
<path d="M349.92 609.32C349.92 609.32 378.84 613.42 378.84 591L367.93 591.64C367.93 591.64 349.93 590.99 349.93 606.46V625.68" fill="#205D46" fill-opacity="0.02"/>
<path d="M349.92 609.32C349.92 609.32 378.84 613.42 378.84 591L367.93 591.64C367.93 591.64 349.93 590.99 349.93 606.46V625.68" stroke="#205D46" stroke-width="5" stroke-linejoin="round"/>
<path d="M37.92 119.32C37.92 119.32 9 123.42 9 101L19.91 101.64C19.91 101.64 37.91 100.99 37.91 116.46V135.68" fill="#205D46" fill-opacity="0.02"/>
<path d="M37.92 119.32C37.92 119.32 9 123.42 9 101L19.91 101.64C19.91 101.64 37.91 100.99 37.91 116.46V135.68" stroke="#205D46" stroke-width="5" stroke-linejoin="round"/>
<path d="M37.92 119.32C37.92 119.32 66.84 123.42 66.84 101L55.93 101.64C55.93 101.64 37.93 100.99 37.93 116.46V135.68" fill="#205D46" fill-opacity="0.02"/>
<path d="M37.92 119.32C37.92 119.32 66.84 123.42 66.84 101L55.93 101.64C55.93 101.64 37.93 100.99 37.93 116.46V135.68" stroke="#205D46" stroke-width="5" stroke-linejoin="round"/>
<path d="M115.92 119.32C115.92 119.32 87 123.42 87 101L97.91 101.64C97.91 101.64 115.91 100.99 115.91 116.46V135.68" fill="#205D46" fill-opacity="0.02"/>
<path d="M115.92 119.32C115.92 119.32 87 123.42 87 101L97.91 101.64C97.91 101.64 115.91 100.99 115.91 116.46V135.68" stroke="#205D46" stroke-width="5" stroke-linejoin="round"/>
<path d="M115.92 119.32C115.92 119.32 144.84 123.42 144.84 101L133.93 101.64C133.93 101.64 115.93 100.99 115.93 116.46V135.68" fill="#205D46" fill-opacity="0.02"/>
<path d="M115.92 119.32C115.92 119.32 144.84 123.42 144.84 101L133.93 101.64C133.93 101.64 115.93 100.99 115.93 116.46V135.68" stroke="#205D46" stroke-width="5" stroke-linejoin="round"/>
<path d="M193.92 119.32C193.92 119.32 165 123.42 165 101L175.91 101.64C175.91 101.64 193.91 100.99 193.91 116.46V135.68" fill="#205D46" fill-opacity="0.02"/>
<path d="M193.92 119.32C193.92 119.32 165 123.42 165 101L175.91 101.64C175.91 101.64 193.91 100.99 193.91 116.46V135.68" stroke="#205D46" stroke-width="5" stroke-linejoin="round"/>
<path d="M193.92 119.32C193.92 119.32 222.84 123.42 222.84 101L211.93 101.64C211.93 101.64 193.93 100.99 193.93 116.46V135.68" fill="#205D46" fill-opacity="0.02"/>
<path d="M193.92 119.32C193.92 119.32 222.84 123.42 222.84 101L211.93 101.64C211.93 101.64 193.93 100.99 193.93 116.46V135.68" stroke="#205D46" stroke-width="5" stroke-linejoin="round"/>
<path d="M271.92 119.32C271.92 119.32 243 123.42 243 101L253.91 101.64C253.91 101.64 271.91 100.99 271.91 116.46V135.68" fill="#205D46" fill-opacity="0.02"/>
<path d="M271.92 119.32C271.92 119.32 243 123.42 243 101L253.91 101.64C253.91 101.64 271.91 100.99 271.91 116.46V135.68" stroke="#205D46" stroke-width="5" stroke-linejoin="round"/>
<path d="M271.92 119.32C271.92 119.32 300.84 123.42 300.84 101L289.93 101.64C289.93 101.64 271.93 100.99 271.93 116.46V135.68" fill="#205D46" fill-opacity="0.02"/>
<path d="M271.92 119.32C271.92 119.32 300.84 123.42 300.84 101L289.93 101.64C289.93 101.64 271.93 100.99 271.93 116.46V135.68" stroke="#205D46" stroke-width="5" stroke-linejoin="round"/>
<path d="M349.92 119.32C349.92 119.32 321 123.42 321 101L331.91 101.64C331.91 101.64 349.91 100.99 349.91 116.46V135.68" fill="#205D46" fill-opacity="0.02"/>
<path d="M349.92 119.32C349.92 119.32 321 123.42 321 101L331.91 101.64C331.91 101.64 349.91 100.99 349.91 116.46V135.68" stroke="#205D46" stroke-width="5" stroke-linejoin="round"/>
<path d="M349.92 119.32C349.92 119.32 378.84 123.42 378.84 101L367.93 101.64C367.93 101.64 349.93 100.99 349.93 116.46V135.68" fill="#205D46" fill-opacity="0.02"/>
<path d="M349.92 119.32C349.92 119.32 378.84 123.42 378.84 101L367.93 101.64C367.93 101.64 349.93 100.99 349.93 116.46V135.68" stroke="#205D46" stroke-width="5" stroke-linejoin="round"/>
<path d="M37.92 315.32C37.92 315.32 9 319.42 9 297L19.91 297.64C19.91 297.64 37.91 296.99 37.91 312.46V331.68" fill="#205D46" fill-opacity="0.02"/>
<path d="M37.92 315.32C37.92 315.32 9 319.42 9 297L19.91 297.64C19.91 297.64 37.91 296.99 37.91 312.46V331.68" stroke="#205D46" stroke-width="5" stroke-linejoin="round"/>
<path d="M37.92 315.32C37.92 315.32 66.84 319.42 66.84 297L55.93 297.64C55.93 297.64 37.93 296.99 37.93 312.46V331.68" fill="#205D46" fill-opacity="0.02"/>
<path d="M37.92 315.32C37.92 315.32 66.84 319.42 66.84 297L55.93 297.64C55.93 297.64 37.93 296.99 37.93 312.46V331.68" stroke="#205D46" stroke-width="5" stroke-linejoin="round"/>
<path d="M115.92 315.32C115.92 315.32 87 319.42 87 297L97.91 297.64C97.91 297.64 115.91 296.99 115.91 312.46V331.68" fill="#205D46" fill-opacity="0.02"/>
<path d="M115.92 315.32C115.92 315.32 87 319.42 87 297L97.91 297.64C97.91 297.64 115.91 296.99 115.91 312.46V331.68" stroke="#205D46" stroke-width="5" stroke-linejoin="round"/>
<path d="M115.92 315.32C115.92 315.32 144.84 319.42 144.84 297L133.93 297.64C133.93 297.64 115.93 296.99 115.93 312.46V331.68" fill="#205D46" fill-opacity="0.02"/>
<path d="M115.92 315.32C115.92 315.32 144.84 319.42 144.84 297L133.93 297.64C133.93 297.64 115.93 296.99 115.93 312.46V331.68" stroke="#205D46" stroke-width="5" stroke-linejoin="round"/>
<path d="M193.92 315.32C193.92 315.32 165 319.42 165 297L175.91 297.64C175.91 297.64 193.91 296.99 193.91 312.46V331.68" fill="#205D46" fill-opacity="0.02"/>
<path d="M193.92 315.32C193.92 315.32 165 319.42 165 297L175.91 297.64C175.91 297.64 193.91 296.99 193.91 312.46V331.68" stroke="#205D46" stroke-width="5" stroke-linejoin="round"/>
<path d="M193.92 315.32C193.92 315.32 222.84 319.42 222.84 297L211.93 297.64C211.93 297.64 193.93 296.99 193.93 312.46V331.68" fill="#205D46" fill-opacity="0.02"/>
<path d="M193.92 315.32C193.92 315.32 222.84 319.42 222.84 297L211.93 297.64C211.93 297.64 193.93 296.99 193.93 312.46V331.68" stroke="#205D46" stroke-width="5" stroke-linejoin="round"/>
<path d="M271.92 315.32C271.92 315.32 243 319.42 243 297L253.91 297.64C253.91 297.64 271.91 296.99 271.91 312.46V331.68" fill="#205D46" fill-opacity="0.02"/>
<path d="M271.92 315.32C271.92 315.32 243 319.42 243 297L253.91 297.64C253.91 297.64 271.91 296.99 271.91 312.46V331.68" stroke="#205D46" stroke-width="5" stroke-linejoin="round"/>
<path d="M271.92 315.32C271.92 315.32 300.84 319.42 300.84 297L289.93 297.64C289.93 297.64 271.93 296.99 271.93 312.46V331.68" fill="#205D46" fill-opacity="0.02"/>
<path d="M271.92 315.32C271.92 315.32 300.84 319.42 300.84 297L289.93 297.64C289.93 297.64 271.93 296.99 271.93 312.46V331.68" stroke="#205D46" stroke-width="5" stroke-linejoin="round"/>
<path d="M349.92 315.32C349.92 315.32 321 319.42 321 297L331.91 297.64C331.91 297.64 349.91 296.99 349.91 312.46V331.68" fill="#205D46" fill-opacity="0.02"/>
<path d="M349.92 315.32C349.92 315.32 321 319.42 321 297L331.91 297.64C331.91 297.64 349.91 296.99 349.91 312.46V331.68" stroke="#205D46" stroke-width="5" stroke-linejoin="round"/>
<path d="M349.92 315.32C349.92 315.32 378.84 319.42 378.84 297L367.93 297.64C367.93 297.64 349.93 296.99 349.93 312.46V331.68" fill="#205D46" fill-opacity="0.02"/>
<path d="M349.92 315.32C349.92 315.32 378.84 319.42 378.84 297L367.93 297.64C367.93 297.64 349.93 296.99 349.93 312.46V331.68" stroke="#205D46" stroke-width="5" stroke-linejoin="round"/>
<path d="M37.92 511.32C37.92 511.32 9 515.42 9 493L19.91 493.64C19.91 493.64 37.91 492.99 37.91 508.46V527.68" fill="#205D46" fill-opacity="0.02"/>
<path d="M37.92 511.32C37.92 511.32 9 515.42 9 493L19.91 493.64C19.91 493.64 37.91 492.99 37.91 508.46V527.68" stroke="#205D46" stroke-width="5" stroke-linejoin="round"/>
<path d="M37.92 511.32C37.92 511.32 66.84 515.42 66.84 493L55.93 493.64C55.93 493.64 37.93 492.99 37.93 508.46V527.68" fill="#205D46" fill-opacity="0.02"/>
<path d="M37.92 511.32C37.92 511.32 66.84 515.42 66.84 493L55.93 493.64C55.93 493.64 37.93 492.99 37.93 508.46V527.68" stroke="#205D46" stroke-width="5" stroke-linejoin="round"/>
<path d="M115.92 511.32C115.92 511.32 87 515.42 87 493L97.91 493.64C97.91 493.64 115.91 492.99 115.91 508.46V527.68" fill="#205D46" fill-opacity="0.02"/>
<path d="M115.92 511.32C115.92 511.32 87 515.42 87 493L97.91 493.64C97.91 493.64 115.91 492.99 115.91 508.46V527.68" stroke="#205D46" stroke-width="5" stroke-linejoin="round"/>
<path d="M115.92 511.32C115.92 511.32 144.84 515.42 144.84 493L133.93 493.64C133.93 493.64 115.93 492.99 115.93 508.46V527.68" fill="#205D46" fill-opacity="0.02"/>
<path d="M115.92 511.32C115.92 511.32 144.84 515.42 144.84 493L133.93 493.64C133.93 493.64 115.93 492.99 115.93 508.46V527.68" stroke="#205D46" stroke-width="5" stroke-linejoin="round"/>
<path d="M193.92 511.32C193.92 511.32 165 515.42 165 493L175.91 493.64C175.91 493.64 193.91 492.99 193.91 508.46V527.68" fill="#205D46" fill-opacity="0.02"/>
<path d="M193.92 511.32C193.92 511.32 165 515.42 165 493L175.91 493.64C175.91 493.64 193.91 492.99 193.91 508.46V527.68" stroke="#205D46" stroke-width="5" stroke-linejoin="round"/>
<path d="M193.92 511.32C193.92 511.32 222.84 515.42 222.84 493L211.93 493.64C211.93 493.64 193.93 492.99 193.93 508.46V527.68" fill="#205D46" fill-opacity="0.02"/>
<path d="M193.92 511.32C193.92 511.32 222.84 515.42 222.84 493L211.93 493.64C211.93 493.64 193.93 492.99 193.93 508.46V527.68" stroke="#205D46" stroke-width="5" stroke-linejoin="round"/>
<path d="M271.92 511.32C271.92 511.32 243 515.42 243 493L253.91 493.64C253.91 493.64 271.91 492.99 271.91 508.46V527.68" fill="#205D46" fill-opacity="0.02"/>
<path d="M271.92 511.32C271.92 511.32 243 515.42 243 493L253.91 493.64C253.91 493.64 271.91 492.99 271.91 508.46V527.68" stroke="#205D46" stroke-width="5" stroke-linejoin="round"/>
<path d="M271.92 511.32C271.92 511.32 300.84 515.42 300.84 493L289.93 493.64C289.93 493.64 271.93 492.99 271.93 508.46V527.68" fill="#205D46" fill-opacity="0.02"/>
<path d="M271.92 511.32C271.92 511.32 300.84 515.42 300.84 493L289.93 493.64C289.93 493.64 271.93 492.99 271.93 508.46V527.68" stroke="#205D46" stroke-width="5" stroke-linejoin="round"/>
<path d="M349.92 511.32C349.92 511.32 321 515.42 321 493L331.91 493.64C331.91 493.64 349.91 492.99 349.91 508.46V527.68" fill="#205D46" fill-opacity="0.02"/>
<path d="M349.92 511.32C349.92 511.32 321 515.42 321 493L331.91 493.64C331.91 493.64 349.91 492.99 349.91 508.46V527.68" stroke="#205D46" stroke-width="5" stroke-linejoin="round"/>
<path d="M349.92 511.32C349.92 511.32 378.84 515.42 378.84 493L367.93 493.64C367.93 493.64 349.93 492.99 349.93 508.46V527.68" fill="#205D46" fill-opacity="0.02"/>
<path d="M349.92 511.32C349.92 511.32 378.84 515.42 378.84 493L367.93 493.64C367.93 493.64 349.93 492.99 349.93 508.46V527.68" stroke="#205D46" stroke-width="5" stroke-linejoin="round"/>
<path d="M37.92 707.32C37.92 707.32 9 711.42 9 689L19.91 689.64C19.91 689.64 37.91 688.99 37.91 704.46V723.68" fill="#205D46" fill-opacity="0.02"/>
<path d="M37.92 707.32C37.92 707.32 9 711.42 9 689L19.91 689.64C19.91 689.64 37.91 688.99 37.91 704.46V723.68" stroke="#205D46" stroke-width="5" stroke-linejoin="round"/>
<path d="M37.92 707.32C37.92 707.32 66.84 711.42 66.84 689L55.93 689.64C55.93 689.64 37.93 688.99 37.93 704.46V723.68" fill="#205D46" fill-opacity="0.02"/>
<path d="M37.92 707.32C37.92 707.32 66.84 711.42 66.84 689L55.93 689.64C55.93 689.64 37.93 688.99 37.93 704.46V723.68" stroke="#205D46" stroke-width="5" stroke-linejoin="round"/>
<path d="M115.92 707.32C115.92 707.32 87 711.42 87 689L97.91 689.64C97.91 689.64 115.91 688.99 115.91 704.46V723.68" fill="#205D46" fill-opacity="0.02"/>
<path d="M115.92 707.32C115.92 707.32 87 711.42 87 689L97.91 689.64C97.91 689.64 115.91 688.99 115.91 704.46V723.68" stroke="#205D46" stroke-width="5" stroke-linejoin="round"/>
<path d="M115.92 707.32C115.92 707.32 144.84 711.42 144.84 689L133.93 689.64C133.93 689.64 115.93 688.99 115.93 704.46V723.68" fill="#205D46" fill-opacity="0.02"/>
<path d="M115.92 707.32C115.92 707.32 144.84 711.42 144.84 689L133.93 689.64C133.93 689.64 115.93 688.99 115.93 704.46V723.68" stroke="#205D46" stroke-width="5" stroke-linejoin="round"/>
<path d="M193.92 707.32C193.92 707.32 165 711.42 165 689L175.91 689.64C175.91 689.64 193.91 688.99 193.91 704.46V723.68" fill="#205D46" fill-opacity="0.02"/>
<path d="M193.92 707.32C193.92 707.32 165 711.42 165 689L175.91 689.64C175.91 689.64 193.91 688.99 193.91 704.46V723.68" stroke="#205D46" stroke-width="5" stroke-linejoin="round"/>
<path d="M193.92 707.32C193.92 707.32 222.84 711.42 222.84 689L211.93 689.64C211.93 689.64 193.93 688.99 193.93 704.46V723.68" fill="#205D46" fill-opacity="0.02"/>
<path d="M193.92 707.32C193.92 707.32 222.84 711.42 222.84 689L211.93 689.64C211.93 689.64 193.93 688.99 193.93 704.46V723.68" stroke="#205D46" stroke-width="5" stroke-linejoin="round"/>
<path d="M271.92 707.32C271.92 707.32 243 711.42 243 689L253.91 689.64C253.91 689.64 271.91 688.99 271.91 704.46V723.68" fill="#205D46" fill-opacity="0.02"/>
<path d="M271.92 707.32C271.92 707.32 243 711.42 243 689L253.91 689.64C253.91 689.64 271.91 688.99 271.91 704.46V723.68" stroke="#205D46" stroke-width="5" stroke-linejoin="round"/>
<path d="M271.92 707.32C271.92 707.32 300.84 711.42 300.84 689L289.93 689.64C289.93 689.64 271.93 688.99 271.93 704.46V723.68" fill="#205D46" fill-opacity="0.02"/>
<path d="M271.92 707.32C271.92 707.32 300.84 711.42 300.84 689L289.93 689.64C289.93 689.64 271.93 688.99 271.93 704.46V723.68" stroke="#205D46" stroke-width="5" stroke-linejoin="round"/>
<path d="M349.92 707.32C349.92 707.32 321 711.42 321 689L331.91 689.64C331.91 689.64 349.91 688.99 349.91 704.46V723.68" fill="#205D46" fill-opacity="0.02"/>
<path d="M349.92 707.32C349.92 707.32 321 711.42 321 689L331.91 689.64C331.91 689.64 349.91 688.99 349.91 704.46V723.68" stroke="#205D46" stroke-width="5" stroke-linejoin="round"/>
<path d="M349.92 707.32C349.92 707.32 378.84 711.42 378.84 689L367.93 689.64C367.93 689.64 349.93 688.99 349.93 704.46V723.68" fill="#205D46" fill-opacity="0.02"/>
<path d="M349.92 707.32C349.92 707.32 378.84 711.42 378.84 689L367.93 689.64C367.93 689.64 349.93 688.99 349.93 704.46V723.68" stroke="#205D46" stroke-width="5" stroke-linejoin="round"/>
<path d="M37.92 805.32C37.92 805.32 9 809.42 9 787L19.91 787.64C19.91 787.64 37.91 786.99 37.91 802.46V821.68" fill="#205D46" fill-opacity="0.02"/>
<path d="M37.92 805.32C37.92 805.32 9 809.42 9 787L19.91 787.64C19.91 787.64 37.91 786.99 37.91 802.46V821.68" stroke="#205D46" stroke-width="5" stroke-linejoin="round"/>
<path d="M37.92 805.32C37.92 805.32 66.84 809.42 66.84 787L55.93 787.64C55.93 787.64 37.93 786.99 37.93 802.46V821.68" fill="#205D46" fill-opacity="0.02"/>
<path d="M37.92 805.32C37.92 805.32 66.84 809.42 66.84 787L55.93 787.64C55.93 787.64 37.93 786.99 37.93 802.46V821.68" stroke="#205D46" stroke-width="5" stroke-linejoin="round"/>
<path d="M115.92 805.32C115.92 805.32 87 809.42 87 787L97.91 787.64C97.91 787.64 115.91 786.99 115.91 802.46V821.68" fill="#205D46" fill-opacity="0.02"/>
<path d="M115.92 805.32C115.92 805.32 87 809.42 87 787L97.91 787.64C97.91 787.64 115.91 786.99 115.91 802.46V821.68" stroke="#205D46" stroke-width="5" stroke-linejoin="round"/>
<path d="M115.92 805.32C115.92 805.32 144.84 809.42 144.84 787L133.93 787.64C133.93 787.64 115.93 786.99 115.93 802.46V821.68" fill="#205D46" fill-opacity="0.02"/>
<path d="M115.92 805.32C115.92 805.32 144.84 809.42 144.84 787L133.93 787.64C133.93 787.64 115.93 786.99 115.93 802.46V821.68" stroke="#205D46" stroke-width="5" stroke-linejoin="round"/>
<path d="M193.92 805.32C193.92 805.32 165 809.42 165 787L175.91 787.64C175.91 787.64 193.91 786.99 193.91 802.46V821.68" fill="#205D46" fill-opacity="0.02"/>
<path d="M193.92 805.32C193.92 805.32 165 809.42 165 787L175.91 787.64C175.91 787.64 193.91 786.99 193.91 802.46V821.68" stroke="#205D46" stroke-width="5" stroke-linejoin="round"/>
<path d="M193.92 805.32C193.92 805.32 222.84 809.42 222.84 787L211.93 787.64C211.93 787.64 193.93 786.99 193.93 802.46V821.68" fill="#205D46" fill-opacity="0.02"/>
<path d="M193.92 805.32C193.92 805.32 222.84 809.42 222.84 787L211.93 787.64C211.93 787.64 193.93 786.99 193.93 802.46V821.68" stroke="#205D46" stroke-width="5" stroke-linejoin="round"/>
<path d="M271.92 805.32C271.92 805.32 243 809.42 243 787L253.91 787.64C253.91 787.64 271.91 786.99 271.91 802.46V821.68" fill="#205D46" fill-opacity="0.02"/>
<path d="M271.92 805.32C271.92 805.32 243 809.42 243 787L253.91 787.64C253.91 787.64 271.91 786.99 271.91 802.46V821.68" stroke="#205D46" stroke-width="5" stroke-linejoin="round"/>
<path d="M271.92 805.32C271.92 805.32 300.84 809.42 300.84 787L289.93 787.64C289.93 787.64 271.93 786.99 271.93 802.46V821.68" fill="#205D46" fill-opacity="0.02"/>
<path d="M271.92 805.32C271.92 805.32 300.84 809.42 300.84 787L289.93 787.64C289.93 787.64 271.93 786.99 271.93 802.46V821.68" stroke="#205D46" stroke-width="5" stroke-linejoin="round"/>
<path d="M349.92 805.32C349.92 805.32 321 809.42 321 787L331.91 787.64C331.91 787.64 349.91 786.99 349.91 802.46V821.68" fill="#205D46" fill-opacity="0.02"/>
<path d="M349.92 805.32C349.92 805.32 321 809.42 321 787L331.91 787.64C331.91 787.64 349.91 786.99 349.91 802.46V821.68" stroke="#205D46" stroke-width="5" stroke-linejoin="round"/>
<path d="M349.92 805.32C349.92 805.32 378.84 809.42 378.84 787L367.93 787.64C367.93 787.64 349.93 786.99 349.93 802.46V821.68" fill="#205D46" fill-opacity="0.02"/>
<path d="M349.92 805.32C349.92 805.32 378.84 809.42 378.84 787L367.93 787.64C367.93 787.64 349.93 786.99 349.93 802.46V821.68" stroke="#205D46" stroke-width="5" stroke-linejoin="round"/>
<path d="M-1.08 70.32C-1.08 70.32 -30 74.42 -30 52L-19.09 52.64C-19.09 52.64 -1.09 51.99 -1.09 67.46V86.68" fill="#205D46" fill-opacity="0.02"/>
<path d="M-1.08 70.32C-1.08 70.32 -30 74.42 -30 52L-19.09 52.64C-19.09 52.64 -1.09 51.99 -1.09 67.46V86.68" stroke="#205D46" stroke-width="5" stroke-linejoin="round"/>
<path d="M-1.08002 70.32C-1.08002 70.32 27.84 74.42 27.84 52L16.93 52.64C16.93 52.64 -1.07001 51.99 -1.07001 67.46V86.68" fill="#205D46" fill-opacity="0.02"/>
<path d="M-1.08002 70.32C-1.08002 70.32 27.84 74.42 27.84 52L16.93 52.64C16.93 52.64 -1.07001 51.99 -1.07001 67.46V86.68" stroke="#205D46" stroke-width="5" stroke-linejoin="round"/>
<path d="M76.92 70.32C76.92 70.32 48 74.42 48 52L58.91 52.64C58.91 52.64 76.91 51.99 76.91 67.46V86.68" fill="#205D46" fill-opacity="0.02"/>
<path d="M76.92 70.32C76.92 70.32 48 74.42 48 52L58.91 52.64C58.91 52.64 76.91 51.99 76.91 67.46V86.68" stroke="#205D46" stroke-width="5" stroke-linejoin="round"/>
<path d="M76.92 70.32C76.92 70.32 105.84 74.42 105.84 52L94.93 52.64C94.93 52.64 76.93 51.99 76.93 67.46V86.68" fill="#205D46" fill-opacity="0.02"/>
<path d="M76.92 70.32C76.92 70.32 105.84 74.42 105.84 52L94.93 52.64C94.93 52.64 76.93 51.99 76.93 67.46V86.68" stroke="#205D46" stroke-width="5" stroke-linejoin="round"/>
<path d="M154.92 70.32C154.92 70.32 126 74.42 126 52L136.91 52.64C136.91 52.64 154.91 51.99 154.91 67.46V86.68" fill="#205D46" fill-opacity="0.02"/>
<path d="M154.92 70.32C154.92 70.32 126 74.42 126 52L136.91 52.64C136.91 52.64 154.91 51.99 154.91 67.46V86.68" stroke="#205D46" stroke-width="5" stroke-linejoin="round"/>
<path d="M154.92 70.32C154.92 70.32 183.84 74.42 183.84 52L172.93 52.64C172.93 52.64 154.93 51.99 154.93 67.46V86.68" fill="#205D46" fill-opacity="0.02"/>
<path d="M154.92 70.32C154.92 70.32 183.84 74.42 183.84 52L172.93 52.64C172.93 52.64 154.93 51.99 154.93 67.46V86.68" stroke="#205D46" stroke-width="5" stroke-linejoin="round"/>
<path d="M232.92 70.32C232.92 70.32 204 74.42 204 52L214.91 52.64C214.91 52.64 232.91 51.99 232.91 67.46V86.68" fill="#205D46" fill-opacity="0.02"/>
<path d="M232.92 70.32C232.92 70.32 204 74.42 204 52L214.91 52.64C214.91 52.64 232.91 51.99 232.91 67.46V86.68" stroke="#205D46" stroke-width="5" stroke-linejoin="round"/>
<path d="M232.92 70.32C232.92 70.32 261.84 74.42 261.84 52L250.93 52.64C250.93 52.64 232.93 51.99 232.93 67.46V86.68" fill="#205D46" fill-opacity="0.02"/>
<path d="M232.92 70.32C232.92 70.32 261.84 74.42 261.84 52L250.93 52.64C250.93 52.64 232.93 51.99 232.93 67.46V86.68" stroke="#205D46" stroke-width="5" stroke-linejoin="round"/>
<path d="M310.92 70.32C310.92 70.32 282 74.42 282 52L292.91 52.64C292.91 52.64 310.91 51.99 310.91 67.46V86.68" fill="#205D46" fill-opacity="0.02"/>
<path d="M310.92 70.32C310.92 70.32 282 74.42 282 52L292.91 52.64C292.91 52.64 310.91 51.99 310.91 67.46V86.68" stroke="#205D46" stroke-width="5" stroke-linejoin="round"/>
<path d="M310.92 70.32C310.92 70.32 339.84 74.42 339.84 52L328.93 52.64C328.93 52.64 310.93 51.99 310.93 67.46V86.68" fill="#205D46" fill-opacity="0.02"/>
<path d="M310.92 70.32C310.92 70.32 339.84 74.42 339.84 52L328.93 52.64C328.93 52.64 310.93 51.99 310.93 67.46V86.68" stroke="#205D46" stroke-width="5" stroke-linejoin="round"/>
<path d="M395.92 70.32C395.92 70.32 367 74.42 367 52L377.91 52.64C377.91 52.64 395.91 51.99 395.91 67.46V86.68" fill="#205D46" fill-opacity="0.02"/>
<path d="M395.92 70.32C395.92 70.32 367 74.42 367 52L377.91 52.64C377.91 52.64 395.91 51.99 395.91 67.46V86.68" stroke="#205D46" stroke-width="5" stroke-linejoin="round"/>
<path d="M-1.08 266.32C-1.08 266.32 -30 270.42 -30 248L-19.09 248.64C-19.09 248.64 -1.09 247.99 -1.09 263.46V282.68" fill="#205D46" fill-opacity="0.02"/>
<path d="M-1.08 266.32C-1.08 266.32 -30 270.42 -30 248L-19.09 248.64C-19.09 248.64 -1.09 247.99 -1.09 263.46V282.68" stroke="#205D46" stroke-width="5" stroke-linejoin="round"/>
<path d="M-1.08002 266.32C-1.08002 266.32 27.84 270.42 27.84 248L16.93 248.64C16.93 248.64 -1.07001 247.99 -1.07001 263.46V282.68" fill="#205D46" fill-opacity="0.02"/>
<path d="M-1.08002 266.32C-1.08002 266.32 27.84 270.42 27.84 248L16.93 248.64C16.93 248.64 -1.07001 247.99 -1.07001 263.46V282.68" stroke="#205D46" stroke-width="5" stroke-linejoin="round"/>
<path d="M76.92 266.32C76.92 266.32 48 270.42 48 248L58.91 248.64C58.91 248.64 76.91 247.99 76.91 263.46V282.68" fill="#205D46" fill-opacity="0.02"/>
<path d="M76.92 266.32C76.92 266.32 48 270.42 48 248L58.91 248.64C58.91 248.64 76.91 247.99 76.91 263.46V282.68" stroke="#205D46" stroke-width="5" stroke-linejoin="round"/>
<path d="M76.92 266.32C76.92 266.32 105.84 270.42 105.84 248L94.93 248.64C94.93 248.64 76.93 247.99 76.93 263.46V282.68" fill="#205D46" fill-opacity="0.02"/>
<path d="M76.92 266.32C76.92 266.32 105.84 270.42 105.84 248L94.93 248.64C94.93 248.64 76.93 247.99 76.93 263.46V282.68" stroke="#205D46" stroke-width="5" stroke-linejoin="round"/>
<path d="M154.92 266.32C154.92 266.32 126 270.42 126 248L136.91 248.64C136.91 248.64 154.91 247.99 154.91 263.46V282.68" fill="#205D46" fill-opacity="0.02"/>
<path d="M154.92 266.32C154.92 266.32 126 270.42 126 248L136.91 248.64C136.91 248.64 154.91 247.99 154.91 263.46V282.68" stroke="#205D46" stroke-width="5" stroke-linejoin="round"/>
<path d="M154.92 266.32C154.92 266.32 183.84 270.42 183.84 248L172.93 248.64C172.93 248.64 154.93 247.99 154.93 263.46V282.68" fill="#205D46" fill-opacity="0.02"/>
<path d="M154.92 266.32C154.92 266.32 183.84 270.42 183.84 248L172.93 248.64C172.93 248.64 154.93 247.99 154.93 263.46V282.68" stroke="#205D46" stroke-width="5" stroke-linejoin="round"/>
<path d="M232.92 266.32C232.92 266.32 204 270.42 204 248L214.91 248.64C214.91 248.64 232.91 247.99 232.91 263.46V282.68" fill="#205D46" fill-opacity="0.02"/>
<path d="M232.92 266.32C232.92 266.32 204 270.42 204 248L214.91 248.64C214.91 248.64 232.91 247.99 232.91 263.46V282.68" stroke="#205D46" stroke-width="5" stroke-linejoin="round"/>
<path d="M232.92 266.32C232.92 266.32 261.84 270.42 261.84 248L250.93 248.64C250.93 248.64 232.93 247.99 232.93 263.46V282.68" fill="#205D46" fill-opacity="0.02"/>
<path d="M232.92 266.32C232.92 266.32 261.84 270.42 261.84 248L250.93 248.64C250.93 248.64 232.93 247.99 232.93 263.46V282.68" stroke="#205D46" stroke-width="5" stroke-linejoin="round"/>
<path d="M310.92 266.32C310.92 266.32 282 270.42 282 248L292.91 248.64C292.91 248.64 310.91 247.99 310.91 263.46V282.68" fill="#205D46" fill-opacity="0.02"/>
<path d="M310.92 266.32C310.92 266.32 282 270.42 282 248L292.91 248.64C292.91 248.64 310.91 247.99 310.91 263.46V282.68" stroke="#205D46" stroke-width="5" stroke-linejoin="round"/>
<path d="M310.92 266.32C310.92 266.32 339.84 270.42 339.84 248L328.93 248.64C328.93 248.64 310.93 247.99 310.93 263.46V282.68" fill="#205D46" fill-opacity="0.02"/>
<path d="M310.92 266.32C310.92 266.32 339.84 270.42 339.84 248L328.93 248.64C328.93 248.64 310.93 247.99 310.93 263.46V282.68" stroke="#205D46" stroke-width="5" stroke-linejoin="round"/>
<path d="M395.92 266.32C395.92 266.32 367 270.42 367 248L377.91 248.64C377.91 248.64 395.91 247.99 395.91 263.46V282.68" fill="#205D46" fill-opacity="0.02"/>
<path d="M395.92 266.32C395.92 266.32 367 270.42 367 248L377.91 248.64C377.91 248.64 395.91 247.99 395.91 263.46V282.68" stroke="#205D46" stroke-width="5" stroke-linejoin="round"/>
<path d="M-1.08 462.32C-1.08 462.32 -30 466.42 -30 444L-19.09 444.64C-19.09 444.64 -1.09 443.99 -1.09 459.46V478.68" fill="#205D46" fill-opacity="0.02"/>
<path d="M-1.08 462.32C-1.08 462.32 -30 466.42 -30 444L-19.09 444.64C-19.09 444.64 -1.09 443.99 -1.09 459.46V478.68" stroke="#205D46" stroke-width="5" stroke-linejoin="round"/>
<path d="M-1.08002 462.32C-1.08002 462.32 27.84 466.42 27.84 444L16.93 444.64C16.93 444.64 -1.07001 443.99 -1.07001 459.46V478.68" fill="#205D46" fill-opacity="0.02"/>
<path d="M-1.08002 462.32C-1.08002 462.32 27.84 466.42 27.84 444L16.93 444.64C16.93 444.64 -1.07001 443.99 -1.07001 459.46V478.68" stroke="#205D46" stroke-width="5" stroke-linejoin="round"/>
<path d="M76.92 462.32C76.92 462.32 48 466.42 48 444L58.91 444.64C58.91 444.64 76.91 443.99 76.91 459.46V478.68" fill="#205D46" fill-opacity="0.02"/>
<path d="M76.92 462.32C76.92 462.32 48 466.42 48 444L58.91 444.64C58.91 444.64 76.91 443.99 76.91 459.46V478.68" stroke="#205D46" stroke-width="5" stroke-linejoin="round"/>
<path d="M76.92 462.32C76.92 462.32 105.84 466.42 105.84 444L94.93 444.64C94.93 444.64 76.93 443.99 76.93 459.46V478.68" fill="#205D46" fill-opacity="0.02"/>
<path d="M76.92 462.32C76.92 462.32 105.84 466.42 105.84 444L94.93 444.64C94.93 444.64 76.93 443.99 76.93 459.46V478.68" stroke="#205D46" stroke-width="5" stroke-linejoin="round"/>
<path d="M154.92 462.32C154.92 462.32 126 466.42 126 444L136.91 444.64C136.91 444.64 154.91 443.99 154.91 459.46V478.68" fill="#205D46" fill-opacity="0.02"/>
<path d="M154.92 462.32C154.92 462.32 126 466.42 126 444L136.91 444.64C136.91 444.64 154.91 443.99 154.91 459.46V478.68" stroke="#205D46" stroke-width="5" stroke-linejoin="round"/>
<path d="M154.92 462.32C154.92 462.32 183.84 466.42 183.84 444L172.93 444.64C172.93 444.64 154.93 443.99 154.93 459.46V478.68" fill="#205D46" fill-opacity="0.02"/>
<path d="M154.92 462.32C154.92 462.32 183.84 466.42 183.84 444L172.93 444.64C172.93 444.64 154.93 443.99 154.93 459.46V478.68" stroke="#205D46" stroke-width="5" stroke-linejoin="round"/>
<path d="M232.92 462.32C232.92 462.32 204 466.42 204 444L214.91 444.64C214.91 444.64 232.91 443.99 232.91 459.46V478.68" fill="#205D46" fill-opacity="0.02"/>
<path d="M232.92 462.32C232.92 462.32 204 466.42 204 444L214.91 444.64C214.91 444.64 232.91 443.99 232.91 459.46V478.68" stroke="#205D46" stroke-width="5" stroke-linejoin="round"/>
<path d="M232.92 462.32C232.92 462.32 261.84 466.42 261.84 444L250.93 444.64C250.93 444.64 232.93 443.99 232.93 459.46V478.68" fill="#205D46" fill-opacity="0.02"/>
<path d="M232.92 462.32C232.92 462.32 261.84 466.42 261.84 444L250.93 444.64C250.93 444.64 232.93 443.99 232.93 459.46V478.68" stroke="#205D46" stroke-width="5" stroke-linejoin="round"/>
<path d="M310.92 462.32C310.92 462.32 282 466.42 282 444L292.91 444.64C292.91 444.64 310.91 443.99 310.91 459.46V478.68" fill="#205D46" fill-opacity="0.02"/>
<path d="M310.92 462.32C310.92 462.32 282 466.42 282 444L292.91 444.64C292.91 444.64 310.91 443.99 310.91 459.46V478.68" stroke="#205D46" stroke-width="5" stroke-linejoin="round"/>
<path d="M310.92 462.32C310.92 462.32 339.84 466.42 339.84 444L328.93 444.64C328.93 444.64 310.93 443.99 310.93 459.46V478.68" fill="#205D46" fill-opacity="0.02"/>
<path d="M310.92 462.32C310.92 462.32 339.84 466.42 339.84 444L328.93 444.64C328.93 444.64 310.93 443.99 310.93 459.46V478.68" stroke="#205D46" stroke-width="5" stroke-linejoin="round"/>
<path d="M395.92 462.32C395.92 462.32 367 466.42 367 444L377.91 444.64C377.91 444.64 395.91 443.99 395.91 459.46V478.68" fill="#205D46" fill-opacity="0.02"/>
<path d="M395.92 462.32C395.92 462.32 367 466.42 367 444L377.91 444.64C377.91 444.64 395.91 443.99 395.91 459.46V478.68" stroke="#205D46" stroke-width="5" stroke-linejoin="round"/>
<path d="M-1.08 658.32C-1.08 658.32 -30 662.42 -30 640L-19.09 640.64C-19.09 640.64 -1.09 639.99 -1.09 655.46V674.68" fill="#205D46" fill-opacity="0.02"/>
<path d="M-1.08 658.32C-1.08 658.32 -30 662.42 -30 640L-19.09 640.64C-19.09 640.64 -1.09 639.99 -1.09 655.46V674.68" stroke="#205D46" stroke-width="5" stroke-linejoin="round"/>
<path d="M-1.08002 658.32C-1.08002 658.32 27.84 662.42 27.84 640L16.93 640.64C16.93 640.64 -1.07001 639.99 -1.07001 655.46V674.68" fill="#205D46" fill-opacity="0.02"/>
<path d="M-1.08002 658.32C-1.08002 658.32 27.84 662.42 27.84 640L16.93 640.64C16.93 640.64 -1.07001 639.99 -1.07001 655.46V674.68" stroke="#205D46" stroke-width="5" stroke-linejoin="round"/>
<path d="M76.92 658.32C76.92 658.32 48 662.42 48 640L58.91 640.64C58.91 640.64 76.91 639.99 76.91 655.46V674.68" fill="#205D46" fill-opacity="0.02"/>
<path d="M76.92 658.32C76.92 658.32 48 662.42 48 640L58.91 640.64C58.91 640.64 76.91 639.99 76.91 655.46V674.68" stroke="#205D46" stroke-width="5" stroke-linejoin="round"/>
<path d="M76.92 658.32C76.92 658.32 105.84 662.42 105.84 640L94.93 640.64C94.93 640.64 76.93 639.99 76.93 655.46V674.68" fill="#205D46" fill-opacity="0.02"/>
<path d="M76.92 658.32C76.92 658.32 105.84 662.42 105.84 640L94.93 640.64C94.93 640.64 76.93 639.99 76.93 655.46V674.68" stroke="#205D46" stroke-width="5" stroke-linejoin="round"/>
<path d="M154.92 658.32C154.92 658.32 126 662.42 126 640L136.91 640.64C136.91 640.64 154.91 639.99 154.91 655.46V674.68" fill="#205D46" fill-opacity="0.02"/>
<path d="M154.92 658.32C154.92 658.32 126 662.42 126 640L136.91 640.64C136.91 640.64 154.91 639.99 154.91 655.46V674.68" stroke="#205D46" stroke-width="5" stroke-linejoin="round"/>
<path d="M154.92 658.32C154.92 658.32 183.84 662.42 183.84 640L172.93 640.64C172.93 640.64 154.93 639.99 154.93 655.46V674.68" fill="#205D46" fill-opacity="0.02"/>
<path d="M154.92 658.32C154.92 658.32 183.84 662.42 183.84 640L172.93 640.64C172.93 640.64 154.93 639.99 154.93 655.46V674.68" stroke="#205D46" stroke-width="5" stroke-linejoin="round"/>
<path d="M232.92 658.32C232.92 658.32 204 662.42 204 640L214.91 640.64C214.91 640.64 232.91 639.99 232.91 655.46V674.68" fill="#205D46" fill-opacity="0.02"/>
<path d="M232.92 658.32C232.92 658.32 204 662.42 204 640L214.91 640.64C214.91 640.64 232.91 639.99 232.91 655.46V674.68" stroke="#205D46" stroke-width="5" stroke-linejoin="round"/>
<path d="M232.92 658.32C232.92 658.32 261.84 662.42 261.84 640L250.93 640.64C250.93 640.64 232.93 639.99 232.93 655.46V674.68" fill="#205D46" fill-opacity="0.02"/>
<path d="M232.92 658.32C232.92 658.32 261.84 662.42 261.84 640L250.93 640.64C250.93 640.64 232.93 639.99 232.93 655.46V674.68" stroke="#205D46" stroke-width="5" stroke-linejoin="round"/>
<path d="M310.92 658.32C310.92 658.32 282 662.42 282 640L292.91 640.64C292.91 640.64 310.91 639.99 310.91 655.46V674.68" fill="#205D46" fill-opacity="0.02"/>
<path d="M310.92 658.32C310.92 658.32 282 662.42 282 640L292.91 640.64C292.91 640.64 310.91 639.99 310.91 655.46V674.68" stroke="#205D46" stroke-width="5" stroke-linejoin="round"/>
<path d="M310.92 658.32C310.92 658.32 339.84 662.42 339.84 640L328.93 640.64C328.93 640.64 310.93 639.99 310.93 655.46V674.68" fill="#205D46" fill-opacity="0.02"/>
<path d="M310.92 658.32C310.92 658.32 339.84 662.42 339.84 640L328.93 640.64C328.93 640.64 310.93 639.99 310.93 655.46V674.68" stroke="#205D46" stroke-width="5" stroke-linejoin="round"/>
<path d="M395.92 658.32C395.92 658.32 367 662.42 367 640L377.91 640.64C377.91 640.64 395.91 639.99 395.91 655.46V674.68" fill="#205D46" fill-opacity="0.02"/>
<path d="M395.92 658.32C395.92 658.32 367 662.42 367 640L377.91 640.64C377.91 640.64 395.91 639.99 395.91 655.46V674.68" stroke="#205D46" stroke-width="5" stroke-linejoin="round"/>
<path d="M-1.08 168.32C-1.08 168.32 -30 172.42 -30 150L-19.09 150.64C-19.09 150.64 -1.09 149.99 -1.09 165.46V184.68" fill="#205D46" fill-opacity="0.02"/>
<path d="M-1.08 168.32C-1.08 168.32 -30 172.42 -30 150L-19.09 150.64C-19.09 150.64 -1.09 149.99 -1.09 165.46V184.68" stroke="#205D46" stroke-width="5" stroke-linejoin="round"/>
<path d="M-1.08002 168.32C-1.08002 168.32 27.84 172.42 27.84 150L16.93 150.64C16.93 150.64 -1.07001 149.99 -1.07001 165.46V184.68" fill="#205D46" fill-opacity="0.02"/>
<path d="M-1.08002 168.32C-1.08002 168.32 27.84 172.42 27.84 150L16.93 150.64C16.93 150.64 -1.07001 149.99 -1.07001 165.46V184.68" stroke="#205D46" stroke-width="5" stroke-linejoin="round"/>
<path d="M76.92 168.32C76.92 168.32 48 172.42 48 150L58.91 150.64C58.91 150.64 76.91 149.99 76.91 165.46V184.68" fill="#205D46" fill-opacity="0.02"/>
<path d="M76.92 168.32C76.92 168.32 48 172.42 48 150L58.91 150.64C58.91 150.64 76.91 149.99 76.91 165.46V184.68" stroke="#205D46" stroke-width="5" stroke-linejoin="round"/>
<path d="M76.92 168.32C76.92 168.32 105.84 172.42 105.84 150L94.93 150.64C94.93 150.64 76.93 149.99 76.93 165.46V184.68" fill="#205D46" fill-opacity="0.02"/>
<path d="M76.92 168.32C76.92 168.32 105.84 172.42 105.84 150L94.93 150.64C94.93 150.64 76.93 149.99 76.93 165.46V184.68" stroke="#205D46" stroke-width="5" stroke-linejoin="round"/>
<path d="M154.92 168.32C154.92 168.32 126 172.42 126 150L136.91 150.64C136.91 150.64 154.91 149.99 154.91 165.46V184.68" fill="#205D46" fill-opacity="0.02"/>
<path d="M154.92 168.32C154.92 168.32 126 172.42 126 150L136.91 150.64C136.91 150.64 154.91 149.99 154.91 165.46V184.68" stroke="#205D46" stroke-width="5" stroke-linejoin="round"/>
<path d="M154.92 168.32C154.92 168.32 183.84 172.42 183.84 150L172.93 150.64C172.93 150.64 154.93 149.99 154.93 165.46V184.68" fill="#205D46" fill-opacity="0.02"/>
<path d="M154.92 168.32C154.92 168.32 183.84 172.42 183.84 150L172.93 150.64C172.93 150.64 154.93 149.99 154.93 165.46V184.68" stroke="#205D46" stroke-width="5" stroke-linejoin="round"/>
<path d="M232.92 168.32C232.92 168.32 204 172.42 204 150L214.91 150.64C214.91 150.64 232.91 149.99 232.91 165.46V184.68" fill="#205D46" fill-opacity="0.02"/>
<path d="M232.92 168.32C232.92 168.32 204 172.42 204 150L214.91 150.64C214.91 150.64 232.91 149.99 232.91 165.46V184.68" stroke="#205D46" stroke-width="5" stroke-linejoin="round"/>
<path d="M232.92 168.32C232.92 168.32 261.84 172.42 261.84 150L250.93 150.64C250.93 150.64 232.93 149.99 232.93 165.46V184.68" fill="#205D46" fill-opacity="0.02"/>
<path d="M232.92 168.32C232.92 168.32 261.84 172.42 261.84 150L250.93 150.64C250.93 150.64 232.93 149.99 232.93 165.46V184.68" stroke="#205D46" stroke-width="5" stroke-linejoin="round"/>
<path d="M310.92 168.32C310.92 168.32 282 172.42 282 150L292.91 150.64C292.91 150.64 310.91 149.99 310.91 165.46V184.68" fill="#205D46" fill-opacity="0.02"/>
<path d="M310.92 168.32C310.92 168.32 282 172.42 282 150L292.91 150.64C292.91 150.64 310.91 149.99 310.91 165.46V184.68" stroke="#205D46" stroke-width="5" stroke-linejoin="round"/>
<path d="M310.92 168.32C310.92 168.32 339.84 172.42 339.84 150L328.93 150.64C328.93 150.64 310.93 149.99 310.93 165.46V184.68" fill="#205D46" fill-opacity="0.02"/>
<path d="M310.92 168.32C310.92 168.32 339.84 172.42 339.84 150L328.93 150.64C328.93 150.64 310.93 149.99 310.93 165.46V184.68" stroke="#205D46" stroke-width="5" stroke-linejoin="round"/>
<path d="M395.92 168.32C395.92 168.32 367 172.42 367 150L377.91 150.64C377.91 150.64 395.91 149.99 395.91 165.46V184.68" fill="#205D46" fill-opacity="0.02"/>
<path d="M395.92 168.32C395.92 168.32 367 172.42 367 150L377.91 150.64C377.91 150.64 395.91 149.99 395.91 165.46V184.68" stroke="#205D46" stroke-width="5" stroke-linejoin="round"/>
<path d="M-1.08 364.32C-1.08 364.32 -30 368.42 -30 346L-19.09 346.64C-19.09 346.64 -1.09 345.99 -1.09 361.46V380.68" fill="#205D46" fill-opacity="0.02"/>
<path d="M-1.08 364.32C-1.08 364.32 -30 368.42 -30 346L-19.09 346.64C-19.09 346.64 -1.09 345.99 -1.09 361.46V380.68" stroke="#205D46" stroke-width="5" stroke-linejoin="round"/>
<path d="M-1.08002 364.32C-1.08002 364.32 27.84 368.42 27.84 346L16.93 346.64C16.93 346.64 -1.07001 345.99 -1.07001 361.46V380.68" fill="#205D46" fill-opacity="0.02"/>
<path d="M-1.08002 364.32C-1.08002 364.32 27.84 368.42 27.84 346L16.93 346.64C16.93 346.64 -1.07001 345.99 -1.07001 361.46V380.68" stroke="#205D46" stroke-width="5" stroke-linejoin="round"/>
<path d="M76.92 364.32C76.92 364.32 48 368.42 48 346L58.91 346.64C58.91 346.64 76.91 345.99 76.91 361.46V380.68" fill="#205D46" fill-opacity="0.02"/>
<path d="M76.92 364.32C76.92 364.32 48 368.42 48 346L58.91 346.64C58.91 346.64 76.91 345.99 76.91 361.46V380.68" stroke="#205D46" stroke-width="5" stroke-linejoin="round"/>
<path d="M76.92 364.32C76.92 364.32 105.84 368.42 105.84 346L94.93 346.64C94.93 346.64 76.93 345.99 76.93 361.46V380.68" fill="#205D46" fill-opacity="0.02"/>
<path d="M76.92 364.32C76.92 364.32 105.84 368.42 105.84 346L94.93 346.64C94.93 346.64 76.93 345.99 76.93 361.46V380.68" stroke="#205D46" stroke-width="5" stroke-linejoin="round"/>
<path d="M154.92 364.32C154.92 364.32 126 368.42 126 346L136.91 346.64C136.91 346.64 154.91 345.99 154.91 361.46V380.68" fill="#205D46" fill-opacity="0.02"/>
<path d="M154.92 364.32C154.92 364.32 126 368.42 126 346L136.91 346.64C136.91 346.64 154.91 345.99 154.91 361.46V380.68" stroke="#205D46" stroke-width="5" stroke-linejoin="round"/>
<path d="M154.92 364.32C154.92 364.32 183.84 368.42 183.84 346L172.93 346.64C172.93 346.64 154.93 345.99 154.93 361.46V380.68" fill="#205D46" fill-opacity="0.02"/>
<path d="M154.92 364.32C154.92 364.32 183.84 368.42 183.84 346L172.93 346.64C172.93 346.64 154.93 345.99 154.93 361.46V380.68" stroke="#205D46" stroke-width="5" stroke-linejoin="round"/>
<path d="M232.92 364.32C232.92 364.32 204 368.42 204 346L214.91 346.64C214.91 346.64 232.91 345.99 232.91 361.46V380.68" fill="#205D46" fill-opacity="0.02"/>
<path d="M232.92 364.32C232.92 364.32 204 368.42 204 346L214.91 346.64C214.91 346.64 232.91 345.99 232.91 361.46V380.68" stroke="#205D46" stroke-width="5" stroke-linejoin="round"/>
<path d="M232.92 364.32C232.92 364.32 261.84 368.42 261.84 346L250.93 346.64C250.93 346.64 232.93 345.99 232.93 361.46V380.68" fill="#205D46" fill-opacity="0.02"/>
<path d="M232.92 364.32C232.92 364.32 261.84 368.42 261.84 346L250.93 346.64C250.93 346.64 232.93 345.99 232.93 361.46V380.68" stroke="#205D46" stroke-width="5" stroke-linejoin="round"/>
<path d="M310.92 364.32C310.92 364.32 282 368.42 282 346L292.91 346.64C292.91 346.64 310.91 345.99 310.91 361.46V380.68" fill="#205D46" fill-opacity="0.02"/>
<path d="M310.92 364.32C310.92 364.32 282 368.42 282 346L292.91 346.64C292.91 346.64 310.91 345.99 310.91 361.46V380.68" stroke="#205D46" stroke-width="5" stroke-linejoin="round"/>
<path d="M310.92 364.32C310.92 364.32 339.84 368.42 339.84 346L328.93 346.64C328.93 346.64 310.93 345.99 310.93 361.46V380.68" fill="#205D46" fill-opacity="0.02"/>
<path d="M310.92 364.32C310.92 364.32 339.84 368.42 339.84 346L328.93 346.64C328.93 346.64 310.93 345.99 310.93 361.46V380.68" stroke="#205D46" stroke-width="5" stroke-linejoin="round"/>
<path d="M395.92 364.32C395.92 364.32 367 368.42 367 346L377.91 346.64C377.91 346.64 395.91 345.99 395.91 361.46V380.68" fill="#205D46" fill-opacity="0.02"/>
<path d="M395.92 364.32C395.92 364.32 367 368.42 367 346L377.91 346.64C377.91 346.64 395.91 345.99 395.91 361.46V380.68" stroke="#205D46" stroke-width="5" stroke-linejoin="round"/>
<path d="M-1.08 560.32C-1.08 560.32 -30 564.42 -30 542L-19.09 542.64C-19.09 542.64 -1.09 541.99 -1.09 557.46V576.68" fill="#205D46" fill-opacity="0.02"/>
<path d="M-1.08 560.32C-1.08 560.32 -30 564.42 -30 542L-19.09 542.64C-19.09 542.64 -1.09 541.99 -1.09 557.46V576.68" stroke="#205D46" stroke-width="5" stroke-linejoin="round"/>
<path d="M-1.08002 560.32C-1.08002 560.32 27.84 564.42 27.84 542L16.93 542.64C16.93 542.64 -1.07001 541.99 -1.07001 557.46V576.68" fill="#205D46" fill-opacity="0.02"/>
<path d="M-1.08002 560.32C-1.08002 560.32 27.84 564.42 27.84 542L16.93 542.64C16.93 542.64 -1.07001 541.99 -1.07001 557.46V576.68" stroke="#205D46" stroke-width="5" stroke-linejoin="round"/>
<path d="M76.92 560.32C76.92 560.32 48 564.42 48 542L58.91 542.64C58.91 542.64 76.91 541.99 76.91 557.46V576.68" fill="#205D46" fill-opacity="0.02"/>
<path d="M76.92 560.32C76.92 560.32 48 564.42 48 542L58.91 542.64C58.91 542.64 76.91 541.99 76.91 557.46V576.68" stroke="#205D46" stroke-width="5" stroke-linejoin="round"/>
<path d="M76.92 560.32C76.92 560.32 105.84 564.42 105.84 542L94.93 542.64C94.93 542.64 76.93 541.99 76.93 557.46V576.68" fill="#205D46" fill-opacity="0.02"/>
<path d="M76.92 560.32C76.92 560.32 105.84 564.42 105.84 542L94.93 542.64C94.93 542.64 76.93 541.99 76.93 557.46V576.68" stroke="#205D46" stroke-width="5" stroke-linejoin="round"/>
<path d="M154.92 560.32C154.92 560.32 126 564.42 126 542L136.91 542.64C136.91 542.64 154.91 541.99 154.91 557.46V576.68" fill="#205D46" fill-opacity="0.02"/>
<path d="M154.92 560.32C154.92 560.32 126 564.42 126 542L136.91 542.64C136.91 542.64 154.91 541.99 154.91 557.46V576.68" stroke="#205D46" stroke-width="5" stroke-linejoin="round"/>
<path d="M154.92 560.32C154.92 560.32 183.84 564.42 183.84 542L172.93 542.64C172.93 542.64 154.93 541.99 154.93 557.46V576.68" fill="#205D46" fill-opacity="0.02"/>
<path d="M154.92 560.32C154.92 560.32 183.84 564.42 183.84 542L172.93 542.64C172.93 542.64 154.93 541.99 154.93 557.46V576.68" stroke="#205D46" stroke-width="5" stroke-linejoin="round"/>
<path d="M232.92 560.32C232.92 560.32 204 564.42 204 542L214.91 542.64C214.91 542.64 232.91 541.99 232.91 557.46V576.68" fill="#205D46" fill-opacity="0.02"/>
<path d="M232.92 560.32C232.92 560.32 204 564.42 204 542L214.91 542.64C214.91 542.64 232.91 541.99 232.91 557.46V576.68" stroke="#205D46" stroke-width="5" stroke-linejoin="round"/>
<path d="M232.92 560.32C232.92 560.32 261.84 564.42 261.84 542L250.93 542.64C250.93 542.64 232.93 541.99 232.93 557.46V576.68" fill="#205D46" fill-opacity="0.02"/>
<path d="M232.92 560.32C232.92 560.32 261.84 564.42 261.84 542L250.93 542.64C250.93 542.64 232.93 541.99 232.93 557.46V576.68" stroke="#205D46" stroke-width="5" stroke-linejoin="round"/>
<path d="M310.92 560.32C310.92 560.32 282 564.42 282 542L292.91 542.64C292.91 542.64 310.91 541.99 310.91 557.46V576.68" fill="#205D46" fill-opacity="0.02"/>
<path d="M310.92 560.32C310.92 560.32 282 564.42 282 542L292.91 542.64C292.91 542.64 310.91 541.99 310.91 557.46V576.68" stroke="#205D46" stroke-width="5" stroke-linejoin="round"/>
<path d="M310.92 560.32C310.92 560.32 339.84 564.42 339.84 542L328.93 542.64C328.93 542.64 310.93 541.99 310.93 557.46V576.68" fill="#205D46" fill-opacity="0.02"/>
<path d="M310.92 560.32C310.92 560.32 339.84 564.42 339.84 542L328.93 542.64C328.93 542.64 310.93 541.99 310.93 557.46V576.68" stroke="#205D46" stroke-width="5" stroke-linejoin="round"/>
<path d="M395.92 560.32C395.92 560.32 367 564.42 367 542L377.91 542.64C377.91 542.64 395.91 541.99 395.91 557.46V576.68" fill="#205D46" fill-opacity="0.02"/>
<path d="M395.92 560.32C395.92 560.32 367 564.42 367 542L377.91 542.64C377.91 542.64 395.91 541.99 395.91 557.46V576.68" stroke="#205D46" stroke-width="5" stroke-linejoin="round"/>
<path d="M-1.08 756.32C-1.08 756.32 -30 760.42 -30 738L-19.09 738.64C-19.09 738.64 -1.09 737.99 -1.09 753.46V772.68" fill="#205D46" fill-opacity="0.02"/>
<path d="M-1.08 756.32C-1.08 756.32 -30 760.42 -30 738L-19.09 738.64C-19.09 738.64 -1.09 737.99 -1.09 753.46V772.68" stroke="#205D46" stroke-width="5" stroke-linejoin="round"/>
<path d="M-1.08002 756.32C-1.08002 756.32 27.84 760.42 27.84 738L16.93 738.64C16.93 738.64 -1.07001 737.99 -1.07001 753.46V772.68" fill="#205D46" fill-opacity="0.02"/>
<path d="M-1.08002 756.32C-1.08002 756.32 27.84 760.42 27.84 738L16.93 738.64C16.93 738.64 -1.07001 737.99 -1.07001 753.46V772.68" stroke="#205D46" stroke-width="5" stroke-linejoin="round"/>
<path d="M76.92 756.32C76.92 756.32 48 760.42 48 738L58.91 738.64C58.91 738.64 76.91 737.99 76.91 753.46V772.68" fill="#205D46" fill-opacity="0.02"/>
<path d="M76.92 756.32C76.92 756.32 48 760.42 48 738L58.91 738.64C58.91 738.64 76.91 737.99 76.91 753.46V772.68" stroke="#205D46" stroke-width="5" stroke-linejoin="round"/>
<path d="M76.92 756.32C76.92 756.32 105.84 760.42 105.84 738L94.93 738.64C94.93 738.64 76.93 737.99 76.93 753.46V772.68" fill="#205D46" fill-opacity="0.02"/>
<path d="M76.92 756.32C76.92 756.32 105.84 760.42 105.84 738L94.93 738.64C94.93 738.64 76.93 737.99 76.93 753.46V772.68" stroke="#205D46" stroke-width="5" stroke-linejoin="round"/>
<path d="M154.92 756.32C154.92 756.32 126 760.42 126 738L136.91 738.64C136.91 738.64 154.91 737.99 154.91 753.46V772.68" fill="#205D46" fill-opacity="0.02"/>
<path d="M154.92 756.32C154.92 756.32 126 760.42 126 738L136.91 738.64C136.91 738.64 154.91 737.99 154.91 753.46V772.68" stroke="#205D46" stroke-width="5" stroke-linejoin="round"/>
<path d="M154.92 756.32C154.92 756.32 183.84 760.42 183.84 738L172.93 738.64C172.93 738.64 154.93 737.99 154.93 753.46V772.68" fill="#205D46" fill-opacity="0.02"/>
<path d="M154.92 756.32C154.92 756.32 183.84 760.42 183.84 738L172.93 738.64C172.93 738.64 154.93 737.99 154.93 753.46V772.68" stroke="#205D46" stroke-width="5" stroke-linejoin="round"/>
<path d="M232.92 756.32C232.92 756.32 204 760.42 204 738L214.91 738.64C214.91 738.64 232.91 737.99 232.91 753.46V772.68" fill="#205D46" fill-opacity="0.02"/>
<path d="M232.92 756.32C232.92 756.32 204 760.42 204 738L214.91 738.64C214.91 738.64 232.91 737.99 232.91 753.46V772.68" stroke="#205D46" stroke-width="5" stroke-linejoin="round"/>
<path d="M232.92 756.32C232.92 756.32 261.84 760.42 261.84 738L250.93 738.64C250.93 738.64 232.93 737.99 232.93 753.46V772.68" fill="#205D46" fill-opacity="0.02"/>
<path d="M232.92 756.32C232.92 756.32 261.84 760.42 261.84 738L250.93 738.64C250.93 738.64 232.93 737.99 232.93 753.46V772.68" stroke="#205D46" stroke-width="5" stroke-linejoin="round"/>
<path d="M310.92 756.32C310.92 756.32 282 760.42 282 738L292.91 738.64C292.91 738.64 310.91 737.99 310.91 753.46V772.68" fill="#205D46" fill-opacity="0.02"/>
<path d="M310.92 756.32C310.92 756.32 282 760.42 282 738L292.91 738.64C292.91 738.64 310.91 737.99 310.91 753.46V772.68" stroke="#205D46" stroke-width="5" stroke-linejoin="round"/>
<path d="M310.92 756.32C310.92 756.32 339.84 760.42 339.84 738L328.93 738.64C328.93 738.64 310.93 737.99 310.93 753.46V772.68" fill="#205D46" fill-opacity="0.02"/>
<path d="M310.92 756.32C310.92 756.32 339.84 760.42 339.84 738L328.93 738.64C328.93 738.64 310.93 737.99 310.93 753.46V772.68" stroke="#205D46" stroke-width="5" stroke-linejoin="round"/>
<path d="M395.92 756.32C395.92 756.32 367 760.42 367 738L377.91 738.64C377.91 738.64 395.91 737.99 395.91 753.46V772.68" fill="#205D46" fill-opacity="0.02"/>
<path d="M395.92 756.32C395.92 756.32 367 760.42 367 738L377.91 738.64C377.91 738.64 395.91 737.99 395.91 753.46V772.68" stroke="#205D46" stroke-width="5" stroke-linejoin="round"/>
</mask>
<g mask="url(#mask0_12_965)">
<rect x="-1" y="-9" width="376" height="268" fill="white" fill-opacity="0.02"/>
</g>
</svg>
